<svg xmlns="http://www.w3.org/2000/svg" xmlns:xlink="http://www.w3.org/1999/xlink" width="841.89" height="187.027" viewBox="0 0 841.89 187.027"><g fill-rule="evenodd" clip-rule="evenodd"><path fill="#FFED00" d="M120.346 110.956L83.538 147.77 122.64 1.849c.21-1.119-.153-1.726-1.147-1.726l-15.949.014c-.992 0-1.685.612-1.897 1.726L54.495 185.306c-.316 1.115.027 1.721 1.043 1.721l10.589-.008c2.74-.002 5.188-1.116 7.323-3.251l58.273-58.272H806.99c1.117 0 1.807-.498 2.08-1.521L841.833 1.723C842.043.606 841.672 0 840.682 0l-15.908.013c-.988 0-1.684.611-1.902 1.726l-28.264 105.434H129.171c-4.927.001-5.341.519-8.825 3.783z"/><path d="M127.782 88.851l22.892-85.423h18.968l-8.397 31.333c13.133-7.453 26.043-18.381 34.187-31.333h19.921c-6.967 14.033-20.508 27.564-40.664 40.574 6.237 6.504 11.915 14.541 15.256 22.925 2.674 6.827 4.051 14.597 3.723 21.924H174.7c-.717-12.529-8.137-28.902-18.004-37.116l-9.946 37.116h-18.968zm184.036-64.216h17.875l-10.836 40.439-6.371 23.777h-17.875l4.777-17.825c-4.777.888-9.308 1.325-13.571 1.325-9.074 0-15.211-2.137-18.449-6.435-3.243-4.276-3.836-10.302-1.763-18.035l6.229-23.246h17.877l-5.71 21.311c-.986 3.683-.869 6.55.358 8.597 1.246 2.047 3.633 3.07 7.204 3.07 1.727 0 3.813-.227 6.226-.659 2.395-.454 4.332-.979 5.801-1.615l8.228-30.704zm11.847 41.973c-4.442 16.591 10.42 22.243 23.175 22.243 9.135 0 20.06-1.408 28.761-4.208l10.402-38.821c2.048-7.643 1.284-13.282-2.297-16.899-3.578-3.617-9.868-5.435-18.897-5.435-4.253 0-9.228.318-14.919.932-3.936.427-7.123.875-9.545 1.329l-3.702 13.817c7.844-1.433 14.726-2.16 20.637-2.16 4.845 0 8.086.639 9.677 1.91 1.592 1.274 2.009 3.365 1.236 6.254l-1.428 5.328c-5.054-2.433-10.184-2.985-15.051-2.985-12.91.001-24.502 5.455-28.049 18.695zm18.675 1.355c1.301-8.405 16.275-9.511 21.324-5.488l-3.289 12.274c-6.331 1.77-19.503 2.693-18.035-6.786zm-143.964-1.355c-4.442 16.591 10.42 22.243 23.175 22.243 9.135 0 20.061-1.408 28.761-4.208l10.402-38.821c2.049-7.643 1.284-13.282-2.297-16.899-3.578-3.617-9.868-5.435-18.897-5.435-4.253 0-9.229.318-14.919.932-3.936.427-7.122.875-9.545 1.329l-3.702 13.817c7.844-1.433 14.726-2.16 20.638-2.16 4.844 0 8.086.639 9.677 1.91 1.592 1.274 2.01 3.365 1.236 6.254l-1.428 5.328c-5.054-2.433-10.184-2.985-15.051-2.985-12.911.001-24.503 5.455-28.05 18.695zm18.675 1.355c1.301-8.405 16.275-9.511 21.325-5.488l-3.29 12.274c-6.331 1.77-19.503 2.693-18.035-6.786zM754.56 3.428c15.344 0 9.495 17.661-4.738 17.661-15.283 0-9.437-17.661 4.738-17.661zm-1.381 85.423l3.729-13.919h17.875l-3.729 13.919h-17.875zm5.136-19.169h17.875l17.751-66.253h-17.875l-17.751 66.253zm-30.495.179c-1.11 4.147-2.853 11.196.081 14.906 2.485 3.143 6.423 4.084 10.181 4.084 3.447 0 6.821-.495 10.112-1.494l3.33-12.425h-3.981c-1.251 0-1.997-.385-2.24-1.138-.24-.746-.094-2.116.442-4.116l12.07-45.043H739.94l-12.12 45.226zm6.659-45.226l-15.258 56.94c-4.634 2.184-9.856 3.934-15.652 5.277-5.816 1.341-11.18 2-16.115 2-7.005 0-12.36-1.318-16.048-3.934-7.934 2.616-15.292 3.934-22.114 3.934-8.848 0-14.836-2.182-17.958-6.572-3.128-4.366-3.655-10.462-1.558-18.285l10.547-39.359h17.875L648.12 62.243c-1.01 3.773-.957 6.71.148 8.779 1.13 2.069 3.38 3.092 6.768 3.092 3.283 0 8-1.47 10.903-3.001l12.455-46.478h17.875l-10.742 40.088c-1.673 6.25.849 9.391 7.604 9.391 3.196 0 7.904-.968 10.821-2.274l12.65-47.205h17.877zm-171.768 32.49c-2.846 10.621-2.245 18.559 1.778 23.834 4.027 5.254 11.19 7.892 21.447 7.892 10.234 0 18.788-2.638 25.653-7.892 6.871-5.275 11.729-13.212 14.575-23.834l.531-1.979c2.833-10.574 2.224-18.489-1.82-23.766-4.05-5.254-11.19-7.891-21.424-7.891-10.256 0-18.833 2.637-25.676 7.891-6.85 5.276-11.7 13.191-14.533 23.766l-.531 1.979zm18.972-.022l.517-1.934c1.567-5.844 3.825-10.279 6.789-13.282 2.937-2.979 6.523-4.479 10.731-4.479 8.505 0 11.161 5.959 7.962 17.898l-.48 1.797c-1.553 5.799-3.834 10.234-6.813 13.282-2.993 3.025-6.563 4.548-10.724 4.548-4.209 0-6.988-1.5-8.316-4.525-1.35-3.026-1.232-7.461.334-13.305zm-96.127 40.91l18.847-70.34c8.075-2.738 18.591-4.184 27.117-4.184 8.871 0 19.534 3.098 24.943 11.052 3.862 5.755 2.996 14.062 1.35 20.423l-.07.274c-2.777 10.734-7.457 18.991-13.774 24.835-6.32 5.844-13.975 8.779-22.981 8.779a72.44 72.44 0 0 1-14.694-1.523l-2.862 10.684h-17.876zm24.363-24.218c2.485.751 5.496 1.138 9.021 1.138 4.598 0 8.505-1.486 11.715-4.45 3.57-3.294 6.284-8.426 8.153-15.382 1.456-5.436 1.517-11.008-.651-13.691-2.176-2.661-5.638-4.002-10.368-4.002-2.866 0-5.669.363-8.407 1.069l-9.463 35.318zm-51.443-41.779l-15.23 56.835h18.968l14.078-52.582c1.755-6.555 4.51-11.19 8.216-13.965 3.702-2.751 8.969-4.139 15.814-4.139h16.742l3.966-14.737h-25.109c-10.049 0-18.165 2.32-24.28 6.937-6.114 4.616-10.533 11.826-13.165 21.651zm-3.483-7.381l-15.258 56.94c-4.769 2.184-10.151 3.934-16.174 5.277-6 1.341-11.635 2-16.866 2-9.074 0-15.212-2.137-18.45-6.435-3.243-4.276-3.836-10.302-1.763-18.035l10.652-39.746h17.877l-10.133 37.812c-.986 3.683-.869 6.55.358 8.597 1.246 2.047 3.633 3.07 7.204 3.07 1.728 0 3.813-.227 6.226-.659 2.395-.454 4.333-.979 5.801-1.615l12.65-47.205h-12.281l10.35-21.207h17.876l-15.945 21.207h17.876zM75.91 34.636H65.903l2.661-10.001h-14.07l-2.661 10.001h-15.89l2.66-10.001H24.546l-2.679 10.001h-9.978l-3.781 14.21h9.951L13.816 64.64H3.765L0 78.85h10.002L7.341 88.851h14.073l2.659-10.002H40.03l-2.722 10.002H51.36l2.68-10.002h9.991l3.868-14.209H57.866L62.1 48.846h10.042l3.768-14.21zm-27.909 14.21L43.772 64.64h-15.89l4.232-15.794h15.887z"/></g><defs><path id="a" d="M587.252 322.932c-4.896 18.054-23.406 31.13-41.341 29.21-17.935-1.923-28.505-18.117-23.608-36.17 4.896-18.053 23.405-31.13 41.34-29.209 17.934 1.923 28.506 18.116 23.609 36.169z"/></defs><clipPath id="b"><use xlink:href="#a" overflow="visible"/></clipPath><path clip-path="url(#b)" fill-rule="evenodd" clip-rule="evenodd" fill="#FFED00" d="M554.777 319.454l12.823-46.208 1.679.224z"/><path clip-path="url(#b)" fill-rule="evenodd" clip-rule="evenodd" fill="#FFED00" d="M554.777 319.454l14.221-46.021 1.389.219z"/><path clip-path="url(#b)" fill-rule="evenodd" clip-rule="evenodd" fill="#FFEC00" d="M554.777 319.454l15.332-45.845 1.378.254z"/><path clip-path="url(#b)" fill-rule="evenodd" clip-rule="evenodd" fill="#FFEC00" d="M554.777 319.454l16.434-45.641 1.365.289z"/><path clip-path="url(#b)" fill-rule="evenodd" clip-rule="evenodd" fill="#FFEC00" d="M554.777 319.454l17.525-45.41 1.352.324z"/><path clip-path="url(#b)" fill-rule="evenodd" clip-rule="evenodd" fill="#FFEA00" d="M554.777 319.454l18.607-45.151 1.337.356z"/><path clip-path="url(#b)" fill-rule="evenodd" clip-rule="evenodd" fill="#FFEA00" d="M554.777 319.454l19.677-44.865 1.323.392z"/><path clip-path="url(#b)" fill-rule="evenodd" clip-rule="evenodd" fill="#FFE900" d="M554.777 319.454l20.734-44.552 1.307.425z"/><path clip-path="url(#b)" fill-rule="evenodd" clip-rule="evenodd" fill="#FFE900" d="M554.777 319.454l21.78-44.212 1.291.457z"/><path clip-path="url(#b)" fill-rule="evenodd" clip-rule="evenodd" fill="#FFE900" d="M554.777 319.454l22.814-43.845 1.273.49z"/><path clip-path="url(#b)" fill-rule="evenodd" clip-rule="evenodd" fill="#FFE700" d="M554.777 319.454l23.832-43.453 1.255.523z"/><path clip-path="url(#b)" fill-rule="evenodd" clip-rule="evenodd" fill="#FFE700" d="M554.777 319.454l24.836-43.034 1.236.556z"/><path clip-path="url(#b)" fill-rule="evenodd" clip-rule="evenodd" fill="#FFE700" d="M554.777 319.454l25.825-42.59 1.218.589z"/><path clip-path="url(#b)" fill-rule="evenodd" clip-rule="evenodd" fill="#FFE700" d="M554.777 319.454l26.799-42.119 1.198.62z"/><path clip-path="url(#b)" fill-rule="evenodd" clip-rule="evenodd" fill="#FFE600" d="M554.777 319.454l27.756-41.623 1.177.651z"/><path clip-path="url(#b)" fill-rule="evenodd" clip-rule="evenodd" fill="#FFE600" d="M554.777 319.454l28.698-41.102 1.155.684z"/><path clip-path="url(#b)" fill-rule="evenodd" clip-rule="evenodd" fill="#FFE600" d="M554.777 319.454l29.621-40.555 1.133.711z"/><path clip-path="url(#b)" fill-rule="evenodd" clip-rule="evenodd" fill="#FFE400" d="M554.777 319.454l30.527-39.985 1.11.743z"/><path clip-path="url(#b)" fill-rule="evenodd" clip-rule="evenodd" fill="#FFE400" d="M554.777 319.454l31.415-39.39 1.086.772z"/><path clip-path="url(#b)" fill-rule="evenodd" clip-rule="evenodd" fill="#FDE300" d="M554.777 319.454l32.284-38.773 1.062.802z"/><path clip-path="url(#b)" fill-rule="evenodd" clip-rule="evenodd" fill="#FDE300" d="M554.777 319.454l33.133-38.132 1.036.831z"/><path clip-path="url(#b)" fill-rule="evenodd" clip-rule="evenodd" fill="#FDE300" d="M554.777 319.454l33.961-37.467 1.013.859z"/><path clip-path="url(#b)" fill-rule="evenodd" clip-rule="evenodd" fill="#FDE300" d="M554.777 319.454l34.771-36.779.984.886z"/><path clip-path="url(#b)" fill-rule="evenodd" clip-rule="evenodd" fill="#FDE300" d="M554.777 319.454l35.559-36.07.957.912z"/><path clip-path="url(#b)" fill-rule="evenodd" clip-rule="evenodd" fill="#FBE100" d="M554.777 319.454l36.324-35.34.932.939z"/><path clip-path="url(#b)" fill-rule="evenodd" clip-rule="evenodd" fill="#FBE100" d="M554.777 319.454l37.069-34.588.902.966z"/><path clip-path="url(#b)" fill-rule="evenodd" clip-rule="evenodd" fill="#FBE100" d="M554.777 319.454l37.791-33.816.875.993z"/><path clip-path="url(#b)" fill-rule="evenodd" clip-rule="evenodd" fill="#F9DF00" d="M554.777 319.454l38.49-33.021.846 1.015z"/><path clip-path="url(#b)" fill-rule="evenodd" clip-rule="evenodd" fill="#F9DF00" d="M554.777 319.454l39.167-32.209.816 1.041z"/><path clip-path="url(#b)" fill-rule="evenodd" clip-rule="evenodd" fill="#F9DF00" d="M554.777 319.454l39.82-31.375.785 1.064z"/><path clip-path="url(#b)" fill-rule="evenodd" clip-rule="evenodd" fill="#F9DF00" d="M554.777 319.454l40.448-30.525.755 1.089z"/><path clip-path="url(#b)" fill-rule="evenodd" clip-rule="evenodd" fill="#F9DE00" d="M554.777 319.454L595.83 289.8l.724 1.109z"/><path clip-path="url(#b)" fill-rule="evenodd" clip-rule="evenodd" fill="#F7DC00" d="M554.777 319.454l41.632-28.766.693 1.131z"/><path clip-path="url(#b)" fill-rule="evenodd" clip-rule="evenodd" fill="#F7DC00" d="M554.777 319.454l42.186-27.862.661 1.153z"/><path clip-path="url(#b)" fill-rule="evenodd" clip-rule="evenodd" fill="#F7DC00" d="M554.777 319.454l42.715-26.94.63 1.173z"/><path clip-path="url(#b)" fill-rule="evenodd" clip-rule="evenodd" fill="#F5DA00" d="M554.777 319.454l43.219-26.002.596 1.193z"/><path clip-path="url(#b)" fill-rule="evenodd" clip-rule="evenodd" fill="#F5DA00" d="M554.777 319.454l43.696-25.048.562 1.21z"/><path clip-path="url(#b)" fill-rule="evenodd" clip-rule="evenodd" fill="#F5DA00" d="M554.777 319.454l44.147-24.079.53 1.23z"/><path clip-path="url(#b)" fill-rule="evenodd" clip-rule="evenodd" fill="#F5DA00" d="M554.777 319.454l44.571-23.096.496 1.247z"/><path clip-path="url(#b)" fill-rule="evenodd" clip-rule="evenodd" fill="#F5DA00" d="M554.777 319.454l44.968-22.098.464 1.263z"/><path clip-path="url(#b)" fill-rule="evenodd" clip-rule="evenodd" fill="#F3D900" d="M554.777 319.454l45.339-21.088.428 1.28z"/><path clip-path="url(#b)" fill-rule="evenodd" clip-rule="evenodd" fill="#F2D700" d="M554.777 319.454l45.681-20.065.396 1.294z"/><path clip-path="url(#b)" fill-rule="evenodd" clip-rule="evenodd" fill="#F2D700" d="M554.777 319.454l45.998-19.03.359 1.309z"/><path clip-path="url(#b)" fill-rule="evenodd" clip-rule="evenodd" fill="#F0D500" d="M554.777 319.454l46.286-17.982.324 1.321z"/><path clip-path="url(#b)" fill-rule="evenodd" clip-rule="evenodd" fill="#F0D500" d="M554.777 319.454l46.546-16.925.29 1.334z"/><path clip-path="url(#b)" fill-rule="evenodd" clip-rule="evenodd" fill="#F0D500" d="M554.777 319.454l46.778-15.856.254 1.345z"/><path clip-path="url(#b)" fill-rule="evenodd" clip-rule="evenodd" fill="#F0D500" d="M554.777 319.454l46.981-14.78.219 1.359z"/><path clip-path="url(#b)" fill-rule="evenodd" clip-rule="evenodd" fill="#F0D500" d="M554.777 319.454l47.156-13.693.184 1.368z"/><path clip-path="url(#b)" fill-rule="evenodd" clip-rule="evenodd" fill="#EED400" d="M554.777 319.454l47.303-12.599.148 1.378z"/><path clip-path="url(#b)" fill-rule="evenodd" clip-rule="evenodd" fill="#EED400" d="M554.777 319.454l47.422-11.497.113 1.386z"/><path clip-path="url(#b)" fill-rule="evenodd" clip-rule="evenodd" fill="#EED400" d="M554.777 319.454l47.512-10.388.076 1.394z"/><path clip-path="url(#b)" fill-rule="evenodd" clip-rule="evenodd" fill="#EED400" d="M554.777 319.454l47.574-9.273.04 1.403z"/><path clip-path="url(#b)" fill-rule="evenodd" clip-rule="evenodd" fill="#ECD200" d="M554.777 319.454l47.606-8.151.005 1.407z"/><path clip-path="url(#b)" fill-rule="evenodd" clip-rule="evenodd" fill="#ECD200" d="M554.777 319.454l47.611-7.026-.031 1.414z"/><path clip-path="url(#b)" fill-rule="evenodd" clip-rule="evenodd" fill="#ECD200" d="M554.777 319.454l47.585-5.896-.066 1.418z"/><path clip-path="url(#b)" fill-rule="evenodd" clip-rule="evenodd" fill="#ECD200" d="M554.777 319.454l47.532-4.761-.102 1.42z"/><path clip-path="url(#b)" fill-rule="evenodd" clip-rule="evenodd" fill="#ECD000" d="M554.777 319.454l47.45-3.625-.137 1.423z"/><path clip-path="url(#b)" fill-rule="evenodd" clip-rule="evenodd" fill="#EACF00" d="M554.777 319.454l47.34-2.487-.174 1.426z"/><path clip-path="url(#b)" fill-rule="evenodd" clip-rule="evenodd" fill="#EACF00" d="M554.777 319.454l47.201-1.346-.209 1.426z"/><path clip-path="url(#b)" fill-rule="evenodd" clip-rule="evenodd" fill="#EACF00" d="M554.777 319.454l47.034-.205-.245 1.426z"/><path clip-path="url(#b)" fill-rule="evenodd" clip-rule="evenodd" fill="#E8CD00" d="M554.777 319.454l46.837.936-.279 1.425z"/><path clip-path="url(#b)" fill-rule="evenodd" clip-rule="evenodd" fill="#E8CD00" d="M554.777 319.454l46.613 2.076-.314 1.424z"/><path clip-path="url(#b)" fill-rule="evenodd" clip-rule="evenodd" fill="#E8CD00" d="M554.777 319.454l46.362 3.215-.35 1.421z"/><path clip-path="url(#b)" fill-rule="evenodd" clip-rule="evenodd" fill="#E8CD00" d="M554.777 319.454l46.081 4.353-.385 1.418z"/><path clip-path="url(#b)" fill-rule="evenodd" clip-rule="evenodd" fill="#E8CD00" d="M554.777 319.454l45.774 5.488-.419 1.413z"/><path clip-path="url(#b)" fill-rule="evenodd" clip-rule="evenodd" fill="#E6CB00" d="M554.777 319.454l45.438 6.619-.452 1.408z"/><path clip-path="url(#b)" fill-rule="evenodd" clip-rule="evenodd" fill="#E6CB00" d="M554.777 319.454l45.075 7.745-.486 1.404z"/><path clip-path="url(#b)" fill-rule="evenodd" clip-rule="evenodd" fill="#E6CB00" d="M554.777 319.454l44.685 8.869-.52 1.397z"/><path clip-path="url(#b)" fill-rule="evenodd" clip-rule="evenodd" fill="#E6CB00" d="M554.777 319.454l44.27 9.986-.555 1.389z"/><path clip-path="url(#b)" fill-rule="evenodd" clip-rule="evenodd" fill="#E6CB00" d="M554.777 319.454l43.825 11.098-.587 1.381z"/><path clip-path="url(#b)" fill-rule="evenodd" clip-rule="evenodd" fill="#E4C900" d="M554.777 319.454l43.356 12.202-.62 1.373z"/><path clip-path="url(#b)" fill-rule="evenodd" clip-rule="evenodd" fill="#E3C800" d="M554.777 319.454l42.86 13.299-.651 1.363z"/><path clip-path="url(#b)" fill-rule="evenodd" clip-rule="evenodd" fill="#E3C800" d="M554.777 319.454l42.339 14.389-.685 1.351z"/><path clip-path="url(#b)" fill-rule="evenodd" clip-rule="evenodd" fill="#E1C600" d="M554.777 319.454l41.791 15.471-.716 1.339z"/><path clip-path="url(#b)" fill-rule="evenodd" clip-rule="evenodd" fill="#E1C600" d="M554.777 319.454l41.219 16.541-.746 1.327z"/><path clip-path="url(#b)" fill-rule="evenodd" clip-rule="evenodd" fill="#E1C600" d="M554.777 319.454l40.621 17.603-.777 1.313z"/><path clip-path="url(#b)" fill-rule="evenodd" clip-rule="evenodd" fill="#E1C600" d="M554.777 319.454l39.999 18.653-.808 1.3z"/><path clip-path="url(#b)" fill-rule="evenodd" clip-rule="evenodd" fill="#E1C600" d="M554.777 319.454l39.354 19.693-.838 1.285z"/><path clip-path="url(#b)" fill-rule="evenodd" clip-rule="evenodd" fill="#DFC400" d="M554.777 319.454l38.684 20.721-.866 1.269z"/><path clip-path="url(#b)" fill-rule="evenodd" clip-rule="evenodd" fill="#DFC400" d="M554.777 319.454l37.99 21.735-.894 1.254z"/><path clip-path="url(#b)" fill-rule="evenodd" clip-rule="evenodd" fill="#DFC300" d="M554.777 319.454l37.275 22.738-.922 1.236z"/><path clip-path="url(#b)" fill-rule="evenodd" clip-rule="evenodd" fill="#DDC100" d="M554.777 319.454l36.537 23.726-.949 1.218z"/><path clip-path="url(#b)" fill-rule="evenodd" clip-rule="evenodd" fill="#DDC100" d="M554.777 319.454l35.778 24.701-.978 1.199z"/><path clip-path="url(#b)" fill-rule="evenodd" clip-rule="evenodd" fill="#DDC100" d="M554.777 319.454l34.996 25.659-1.004 1.18z"/><path clip-path="url(#b)" fill-rule="evenodd" clip-rule="evenodd" fill="#DDC100" d="M554.777 319.454l34.192 26.604-1.028 1.159z"/><path clip-path="url(#b)" fill-rule="evenodd" clip-rule="evenodd" fill="#DDC100" d="M554.777 319.454l33.37 27.531-1.056 1.139z"/><path clip-path="url(#b)" fill-rule="evenodd" clip-rule="evenodd" fill="#DBBF00" d="M554.777 319.454l32.525 28.443-1.078 1.117z"/><path clip-path="url(#b)" fill-rule="evenodd" clip-rule="evenodd" fill="#DBBF00" d="M554.777 319.454l31.663 29.336-1.104 1.096z"/><path clip-path="url(#b)" fill-rule="evenodd" clip-rule="evenodd" fill="#DBBF00" d="M554.777 319.454l30.78 30.213-1.125 1.073z"/><path clip-path="url(#b)" fill-rule="evenodd" clip-rule="evenodd" fill="#DBBF00" d="M554.777 319.454l29.879 31.072-1.148 1.049z"/><path clip-path="url(#b)" fill-rule="evenodd" clip-rule="evenodd" fill="#D9BD00" d="M554.777 319.454l28.96 31.91-1.17 1.027z"/><path clip-path="url(#b)" fill-rule="evenodd" clip-rule="evenodd" fill="#D9BD00" d="M554.777 319.454l28.026 32.73-1.193 1.001z"/><path clip-path="url(#b)" fill-rule="evenodd" clip-rule="evenodd" fill="#D9BD00" d="M554.777 319.454l27.072 33.531-1.213.975z"/><path clip-path="url(#b)" fill-rule="evenodd" clip-rule="evenodd" fill="#D9BD00" d="M554.777 319.454l26.103 34.311-1.232.949z"/><path clip-path="url(#b)" fill-rule="evenodd" clip-rule="evenodd" fill="#D9BD00" d="M554.777 319.454l25.118 35.07-1.251.924z"/><path clip-path="url(#b)" fill-rule="evenodd" clip-rule="evenodd" fill="#D6BA00" d="M554.777 319.454l24.117 35.81-1.268.896z"/><path clip-path="url(#b)" fill-rule="evenodd" clip-rule="evenodd" fill="#D6BA00" d="M554.777 319.454l23.102 36.525-1.286.869z"/><path clip-path="url(#b)" fill-rule="evenodd" clip-rule="evenodd" fill="#D6BA00" d="M554.777 319.454l22.073 37.222-1.302.84z"/><path clip-path="url(#b)" fill-rule="evenodd" clip-rule="evenodd" fill="#D4B800" d="M554.777 319.454l21.032 37.894-1.318.812z"/><path clip-path="url(#b)" fill-rule="evenodd" clip-rule="evenodd" fill="#D4B800" d="M554.777 319.454l19.977 38.543-1.333.784z"/><path clip-path="url(#b)" fill-rule="evenodd" clip-rule="evenodd" fill="#D4B800" d="M554.777 319.454l18.91 39.17-1.348.753z"/><path clip-path="url(#b)" fill-rule="evenodd" clip-rule="evenodd" fill="#D4B800" d="M554.777 319.454l17.833 39.773-1.362.724z"/><path clip-path="url(#b)" fill-rule="evenodd" clip-rule="evenodd" fill="#D4B800" d="M554.777 319.454l16.743 40.352-1.373.693z"/><path clip-path="url(#b)" fill-rule="evenodd" clip-rule="evenodd" fill="#D2B600" d="M554.777 319.454l15.644 40.906-1.384.663z"/><path clip-path="url(#b)" fill-rule="evenodd" clip-rule="evenodd" fill="#D2B600" d="M554.777 319.454l14.537 41.437-1.397.631z"/><path clip-path="url(#b)" fill-rule="evenodd" clip-rule="evenodd" fill="#D2B500" d="M554.777 319.454l13.418 41.941-1.405.599z"/><path clip-path="url(#b)" fill-rule="evenodd" clip-rule="evenodd" fill="#D2B500" d="M554.777 319.454l12.294 42.421-1.415.567z"/><path clip-path="url(#b)" fill-rule="evenodd" clip-rule="evenodd" fill="#D2B500" d="M554.777 319.454l11.162 42.876-1.425.535z"/><path clip-path="url(#b)" fill-rule="evenodd" clip-rule="evenodd" fill="#CFB300" d="M554.777 319.454l10.023 43.304-1.433.503z"/><path clip-path="url(#b)" fill-rule="evenodd" clip-rule="evenodd" fill="#CFB300" d="M554.777 319.454l8.877 43.706-1.438.47z"/><path clip-path="url(#b)" fill-rule="evenodd" clip-rule="evenodd" fill="#CFB300" d="M554.777 319.454l7.726 44.081-1.444.437z"/><path clip-path="url(#b)" fill-rule="evenodd" clip-rule="evenodd" fill="#CDB100" d="M554.777 319.454l6.571 44.431-1.449.403z"/><path clip-path="url(#b)" fill-rule="evenodd" clip-rule="evenodd" fill="#CDB100" d="M554.777 319.454l5.412 44.753-1.454.371z"/><path clip-path="url(#b)" fill-rule="evenodd" clip-rule="evenodd" fill="#CDB100" d="M554.777 319.454l4.25 45.05-1.457.335z"/><path clip-path="url(#b)" fill-rule="evenodd" clip-rule="evenodd" fill="#CDB100" d="M554.777 319.454l3.085 45.317-1.459.303z"/><path clip-path="url(#b)" fill-rule="evenodd" clip-rule="evenodd" fill="#CDB100" d="M554.777 319.454l1.917 45.559-1.46.268z"/><path clip-path="url(#b)" fill-rule="evenodd" clip-rule="evenodd" fill="#CBAF00" d="M554.777 319.454l.749 45.774-1.46.232z"/><path clip-path="url(#b)" fill-rule="evenodd" clip-rule="evenodd" fill="#CBAF00" d="M554.777 319.454l-.42 45.959-1.46.198z"/><path clip-path="url(#b)" fill-rule="evenodd" clip-rule="evenodd" fill="#CBAF00" d="M554.777 319.454l-1.588 46.118-1.458.163z"/><path clip-path="url(#b)" fill-rule="evenodd" clip-rule="evenodd" fill="#CBAF00" d="M554.777 319.454l-2.755 46.249-1.457.129z"/><path clip-path="url(#b)" fill-rule="evenodd" clip-rule="evenodd" fill="#C9AC00" d="M554.777 319.454l-3.92 46.352-1.455.094z"/><path clip-path="url(#b)" fill-rule="evenodd" clip-rule="evenodd" fill="#C9AC00" d="M554.777 319.454l-5.084 46.427-1.451.059z"/><path clip-path="url(#b)" fill-rule="evenodd" clip-rule="evenodd" fill="#C9AC00" d="M554.777 319.454l-6.244 46.473-1.446.024z"/><path clip-path="url(#b)" fill-rule="evenodd" clip-rule="evenodd" fill="#C9AC00" d="M554.777 319.454l-7.402 46.492-1.439-.011z"/><path clip-path="url(#b)" fill-rule="evenodd" clip-rule="evenodd" fill="#C9AC00" d="M554.777 319.454l-8.552 46.485-1.434-.048z"/><path clip-path="url(#b)" fill-rule="evenodd" clip-rule="evenodd" fill="#C6AA00" d="M554.777 319.454l-9.7 46.447-1.426-.082z"/><path clip-path="url(#b)" fill-rule="evenodd" clip-rule="evenodd" fill="#C6AA00" d="M554.777 319.454l-10.841 46.381-1.418-.116z"/><path clip-path="url(#b)" fill-rule="evenodd" clip-rule="evenodd" fill="#C6AA00" d="M554.777 319.454l-11.975 46.289-1.409-.151z"/><path clip-path="url(#b)" fill-rule="evenodd" clip-rule="evenodd" fill="#C4A800" d="M554.777 319.454l-13.102 46.168-1.4-.185z"/><path clip-path="url(#b)" fill-rule="evenodd" clip-rule="evenodd" fill="#C4A800" d="M554.777 319.454l-14.222 46.02-1.387-.221z"/><path clip-path="url(#b)" fill-rule="evenodd" clip-rule="evenodd" fill="#C4A800" d="M554.777 319.454l-15.333 45.843-1.377-.255z"/><path clip-path="url(#b)" fill-rule="evenodd" clip-rule="evenodd" fill="#C2A600" d="M554.777 319.454l-16.435 45.64-1.363-.29z"/><path clip-path="url(#b)" fill-rule="evenodd" clip-rule="evenodd" fill="#C2A700" d="M554.777 319.454l-17.526 45.408-1.352-.324z"/><path clip-path="url(#b)" fill-rule="evenodd" clip-rule="evenodd" fill="#C0A500" d="M554.777 319.454l-18.608 45.15-1.337-.358z"/><path clip-path="url(#b)" fill-rule="evenodd" clip-rule="evenodd" fill="#C0A600" d="M554.777 319.454l-19.678 44.863-1.321-.392z"/><path clip-path="url(#b)" fill-rule="evenodd" clip-rule="evenodd" fill="#C0A600" d="M554.777 319.454l-20.735 44.55-1.307-.425z"/><path clip-path="url(#b)" fill-rule="evenodd" clip-rule="evenodd" fill="#BEA400" d="M554.777 319.454l-21.781 44.21-1.291-.457z"/><path clip-path="url(#b)" fill-rule="evenodd" clip-rule="evenodd" fill="#BEA400" d="M554.777 319.454l-22.814 43.844-1.273-.491z"/><path clip-path="url(#b)" fill-rule="evenodd" clip-rule="evenodd" fill="#BBA200" d="M554.777 319.454l-23.833 43.451-1.255-.523z"/><path clip-path="url(#b)" fill-rule="evenodd" clip-rule="evenodd" fill="#BBA200" d="M554.777 319.454l-24.837 43.032-1.236-.556z"/><path clip-path="url(#b)" fill-rule="evenodd" clip-rule="evenodd" fill="#BBA200" d="M554.777 319.454l-25.826 42.587-1.217-.588z"/><path clip-path="url(#b)" fill-rule="evenodd" clip-rule="evenodd" fill="#B9A000" d="M554.777 319.454l-26.8 42.117-1.198-.621z"/><path clip-path="url(#b)" fill-rule="evenodd" clip-rule="evenodd" fill="#B9A005" d="M554.777 319.454l-27.757 41.62-1.176-.651z"/><path clip-path="url(#b)" fill-rule="evenodd" clip-rule="evenodd" fill="#B9A005" d="M554.777 319.454l-28.699 41.1-1.153-.684z"/><path clip-path="url(#b)" fill-rule="evenodd" clip-rule="evenodd" fill="#B79F0C" d="M554.777 319.454l-29.622 40.553-1.133-.712z"/><path clip-path="url(#b)" fill-rule="evenodd" clip-rule="evenodd" fill="#B79F13" d="M554.777 319.454l-30.528 39.983-1.11-.743z"/><path clip-path="url(#b)" fill-rule="evenodd" clip-rule="evenodd" fill="#B59D12" d="M554.777 319.454l-31.416 39.388-1.086-.772z"/><path clip-path="url(#b)" fill-rule="evenodd" clip-rule="evenodd" fill="#B59D17" d="M554.777 319.454l-32.285 38.771-1.06-.803z"/><path clip-path="url(#b)" fill-rule="evenodd" clip-rule="evenodd" fill="#B59D17" d="M554.777 319.454l-33.134 38.129-1.036-.83z"/><path clip-path="url(#b)" fill-rule="evenodd" clip-rule="evenodd" fill="#B39C1A" d="M554.777 319.454l-33.962 37.465-1.011-.859z"/><path clip-path="url(#b)" fill-rule="evenodd" clip-rule="evenodd" fill="#B39C1E" d="M554.777 319.454l-34.772 36.778-.984-.886z"/><path clip-path="url(#b)" fill-rule="evenodd" clip-rule="evenodd" fill="#B09A1E" d="M554.777 319.454l-35.56 36.069-.956-.913z"/><path clip-path="url(#b)" fill-rule="evenodd" clip-rule="evenodd" fill="#B09A21" d="M554.777 319.454l-36.325 35.338-.93-.94z"/><path clip-path="url(#b)" fill-rule="evenodd" clip-rule="evenodd" fill="#B09A21" d="M554.777 319.454l-37.07 34.585-.902-.966z"/><path clip-path="url(#b)" fill-rule="evenodd" clip-rule="evenodd" fill="#AE9823" d="M554.777 319.454l-37.792 33.813-.873-.991z"/><path clip-path="url(#b)" fill-rule="evenodd" clip-rule="evenodd" fill="#AE9826" d="M554.777 319.454l-38.491 33.02-.844-1.017z"/><path clip-path="url(#b)" fill-rule="evenodd" clip-rule="evenodd" fill="#AC9625" d="M554.777 319.454l-39.168 32.206-.816-1.041z"/><path clip-path="url(#b)" fill-rule="evenodd" clip-rule="evenodd" fill="#AC9628" d="M554.777 319.454l-39.819 31.373-.787-1.064z"/><path clip-path="url(#b)" fill-rule="evenodd" clip-rule="evenodd" fill="#AC962A" d="M554.777 319.454l-40.448 30.522-.756-1.088z"/><path clip-path="url(#b)" fill-rule="evenodd" clip-rule="evenodd" fill="#AA952A" d="M554.777 319.454l-41.052 29.652-.725-1.109z"/><path clip-path="url(#b)" fill-rule="evenodd" clip-rule="evenodd" fill="#AA952C" d="M554.777 319.454l-41.632 28.766-.694-1.132z"/><path clip-path="url(#b)" fill-rule="evenodd" clip-rule="evenodd" fill="#A7942D" d="M554.777 319.454l-42.187 27.859-.66-1.152z"/><path clip-path="url(#b)" fill-rule="evenodd" clip-rule="evenodd" fill="#A7942D" d="M554.777 319.454l-42.716 26.938-.628-1.174z"/><path clip-path="url(#b)" fill-rule="evenodd" clip-rule="evenodd" fill="#A79430" d="M554.777 319.454l-43.218 25.999-.598-1.192z"/><path clip-path="url(#b)" fill-rule="evenodd" clip-rule="evenodd" fill="#A59231" d="M554.777 319.454l-43.697 25.045-.562-1.21z"/><path clip-path="url(#b)" fill-rule="evenodd" clip-rule="evenodd" fill="#A59231" d="M554.777 319.454l-44.147 24.077-.53-1.23z"/><path clip-path="url(#b)" fill-rule="evenodd" clip-rule="evenodd" fill="#A59233" d="M554.777 319.454l-44.572 23.093-.496-1.247z"/><path clip-path="url(#b)" fill-rule="evenodd" clip-rule="evenodd" fill="#A39032" d="M554.777 319.454l-44.968 22.096-.463-1.264z"/><path clip-path="url(#b)" fill-rule="evenodd" clip-rule="evenodd" fill="#A39034" d="M554.777 319.454l-45.339 21.085-.429-1.279z"/><path clip-path="url(#b)" fill-rule="evenodd" clip-rule="evenodd" fill="#A08E35" d="M554.777 319.454l-45.682 20.062-.396-1.294z"/><path clip-path="url(#b)" fill-rule="evenodd" clip-rule="evenodd" fill="#A08E35" d="M554.777 319.454l-45.999 19.028-.359-1.309z"/><path clip-path="url(#b)" fill-rule="evenodd" clip-rule="evenodd" fill="#A08E37" d="M554.777 319.454l-46.285 17.98-.326-1.322z"/><path clip-path="url(#b)" fill-rule="evenodd" clip-rule="evenodd" fill="#9E8C37" d="M554.777 319.454l-46.546 16.923-.291-1.335z"/><path clip-path="url(#b)" fill-rule="evenodd" clip-rule="evenodd" fill="#9E8C37" d="M554.777 319.454l-46.779 15.854-.254-1.346z"/><path clip-path="url(#b)" fill-rule="evenodd" clip-rule="evenodd" fill="#9C8B38" d="M554.777 319.454l-46.982 14.778-.218-1.359z"/><path clip-path="url(#b)" fill-rule="evenodd" clip-rule="evenodd" fill="#9C8B3A" d="M554.777 319.454l-47.157 13.691-.184-1.369z"/><path clip-path="url(#b)" fill-rule="evenodd" clip-rule="evenodd" fill="#9C8B3A" d="M554.777 319.454l-47.304 12.596-.148-1.377z"/><path clip-path="url(#b)" fill-rule="evenodd" clip-rule="evenodd" fill="#99893B" d="M554.777 319.454l-47.423 11.494-.111-1.386z"/><path clip-path="url(#b)" fill-rule="evenodd" clip-rule="evenodd" fill="#99893B" d="M554.777 319.454l-47.513 10.385-.076-1.394z"/><path clip-path="url(#b)" fill-rule="evenodd" clip-rule="evenodd" fill="#97873B" d="M554.777 319.454l-47.575 9.27-.04-1.402z"/><path clip-path="url(#b)" fill-rule="evenodd" clip-rule="evenodd" fill="#97873D" d="M554.777 319.454l-47.607 8.149-.005-1.408z"/><path clip-path="url(#b)" fill-rule="evenodd" clip-rule="evenodd" fill="#97873D" d="M554.777 319.454l-47.61 7.023.031-1.413z"/><path clip-path="url(#b)" fill-rule="evenodd" clip-rule="evenodd" fill="#94853D" d="M554.777 319.454l-47.586 5.894.066-1.418z"/><path clip-path="url(#b)" fill-rule="evenodd" clip-rule="evenodd" fill="#95863E" d="M554.777 319.454l-47.533 4.759.102-1.42z"/><path clip-path="url(#b)" fill-rule="evenodd" clip-rule="evenodd" fill="#92843E" d="M554.777 319.454l-47.451 3.623.137-1.423z"/><path clip-path="url(#b)" fill-rule="evenodd" clip-rule="evenodd" fill="#928440" d="M554.777 319.454l-47.341 2.485.174-1.427z"/><path clip-path="url(#b)" fill-rule="evenodd" clip-rule="evenodd" fill="#928440" d="M554.777 319.454l-47.2 1.344.207-1.427z"/><path clip-path="url(#b)" fill-rule="evenodd" clip-rule="evenodd" fill="#908140" d="M554.777 319.454l-47.034.203.245-1.427z"/><path clip-path="url(#b)" fill-rule="evenodd" clip-rule="evenodd" fill="#908140" d="M554.777 319.454l-46.838-.938.281-1.425z"/><path clip-path="url(#b)" fill-rule="evenodd" clip-rule="evenodd" fill="#8D7F41" d="M554.777 319.454l-46.614-2.078.314-1.425z"/><path clip-path="url(#b)" fill-rule="evenodd" clip-rule="evenodd" fill="#8D8042" d="M554.777 319.454l-46.362-3.217.349-1.422z"/><path clip-path="url(#b)" fill-rule="evenodd" clip-rule="evenodd" fill="#8D8042" d="M554.777 319.454l-46.082-4.355.385-1.419z"/><path clip-path="url(#b)" fill-rule="evenodd" clip-rule="evenodd" fill="#8B7D42" d="M554.777 319.454l-45.774-5.49.419-1.413z"/><path clip-path="url(#b)" fill-rule="evenodd" clip-rule="evenodd" fill="#8B7E44" d="M554.777 319.454l-45.439-6.621.453-1.409z"/><path clip-path="url(#b)" fill-rule="evenodd" clip-rule="evenodd" fill="#8B7E44" d="M554.777 319.454l-45.076-7.748.486-1.403z"/><path clip-path="url(#b)" fill-rule="evenodd" clip-rule="evenodd" fill="#887B44" d="M554.777 319.454l-44.686-8.871.52-1.398z"/><path clip-path="url(#b)" fill-rule="evenodd" clip-rule="evenodd" fill="#887C46" d="M554.777 319.454l-44.269-9.988.554-1.389z"/><path clip-path="url(#b)" fill-rule="evenodd" clip-rule="evenodd" fill="#867944" d="M554.777 319.454l-43.826-11.1.587-1.382z"/><path clip-path="url(#b)" fill-rule="evenodd" clip-rule="evenodd" fill="#867A46" d="M554.777 319.454L511.42 307.25l.621-1.371z"/><path clip-path="url(#b)" fill-rule="evenodd" clip-rule="evenodd" fill="#867A46" d="M554.777 319.454l-42.861-13.302.653-1.362z"/><path clip-path="url(#b)" fill-rule="evenodd" clip-rule="evenodd" fill="#837846" d="M554.777 319.454l-42.338-14.391.683-1.351z"/><path clip-path="url(#b)" fill-rule="evenodd" clip-rule="evenodd" fill="#837847" d="M554.777 319.454l-41.792-15.471.716-1.34z"/><path clip-path="url(#b)" fill-rule="evenodd" clip-rule="evenodd" fill="#817646" d="M554.777 319.454l-41.22-16.543.748-1.326z"/><path clip-path="url(#b)" fill-rule="evenodd" clip-rule="evenodd" fill="#817647" d="M554.777 319.454l-40.622-17.605.777-1.313z"/><path clip-path="url(#b)" fill-rule="evenodd" clip-rule="evenodd" fill="#817649" d="M554.777 319.454l-40-18.656.808-1.299z"/><path clip-path="url(#b)" fill-rule="evenodd" clip-rule="evenodd" fill="#7E7447" d="M554.777 319.454l-39.353-19.696.836-1.284z"/><path clip-path="url(#b)" fill-rule="evenodd" clip-rule="evenodd" fill="#7E7449" d="M554.777 319.454l-38.684-20.722.865-1.27z"/><path clip-path="url(#b)" fill-rule="evenodd" clip-rule="evenodd" fill="#7C7248" d="M554.777 319.454l-37.991-21.737.894-1.253z"/><path clip-path="url(#b)" fill-rule="evenodd" clip-rule="evenodd" fill="#7C7248" d="M554.777 319.454l-37.276-22.74.922-1.236z"/><path clip-path="url(#b)" fill-rule="evenodd" clip-rule="evenodd" fill="#7C724A" d="M554.777 319.454l-36.537-23.728.95-1.218z"/><path clip-path="url(#b)" fill-rule="evenodd" clip-rule="evenodd" fill="#7A7049" d="M554.777 319.454L519 294.751l.977-1.199z"/><path clip-path="url(#b)" fill-rule="evenodd" clip-rule="evenodd" fill="#7A7049" d="M554.777 319.454l-34.996-25.662 1.003-1.179z"/><path clip-path="url(#b)" fill-rule="evenodd" clip-rule="evenodd" fill="#776E49" d="M554.777 319.454l-34.193-26.605 1.029-1.16z"/><path clip-path="url(#b)" fill-rule="evenodd" clip-rule="evenodd" fill="#776E49" d="M554.777 319.454l-33.369-27.533 1.054-1.14z"/><path clip-path="url(#b)" fill-rule="evenodd" clip-rule="evenodd" fill="#776F4B" d="M554.777 319.454l-32.526-28.444 1.078-1.118z"/><path clip-path="url(#b)" fill-rule="evenodd" clip-rule="evenodd" fill="#756C4A" d="M554.777 319.454l-31.663-29.338 1.103-1.096z"/><path clip-path="url(#b)" fill-rule="evenodd" clip-rule="evenodd" fill="#756C4A" d="M554.777 319.454l-30.781-30.215 1.127-1.072z"/><path clip-path="url(#b)" fill-rule="evenodd" clip-rule="evenodd" fill="#756C4C" d="M554.777 319.454l-29.879-31.072 1.147-1.05z"/><path clip-path="url(#b)" fill-rule="evenodd" clip-rule="evenodd" fill="#726A4A" d="M554.777 319.454l-28.961-31.912 1.17-1.025z"/><path clip-path="url(#b)" fill-rule="evenodd" clip-rule="evenodd" fill="#726A4B" d="M554.777 319.454l-28.025-32.732 1.191-1.001z"/><path clip-path="url(#b)" fill-rule="evenodd" clip-rule="evenodd" fill="#70684A" d="M554.777 319.454l-27.072-33.533 1.212-.976z"/><path clip-path="url(#b)" fill-rule="evenodd" clip-rule="evenodd" fill="#70684A" d="M554.777 319.454l-26.104-34.314 1.234-.949z"/><path clip-path="url(#b)" fill-rule="evenodd" clip-rule="evenodd" fill="#70684C" d="M554.777 319.454l-25.117-35.073 1.249-.923z"/><path clip-path="url(#b)" fill-rule="evenodd" clip-rule="evenodd" fill="#6D674A" d="M554.777 319.454l-24.118-35.811 1.268-.897z"/><path clip-path="url(#b)" fill-rule="evenodd" clip-rule="evenodd" fill="#6D674B" d="M554.777 319.454l-23.103-36.528 1.286-.869z"/><path clip-path="url(#b)" fill-rule="evenodd" clip-rule="evenodd" fill="#6B644A" d="M554.777 319.454l-22.074-37.222 1.302-.842z"/><path clip-path="url(#b)" fill-rule="evenodd" clip-rule="evenodd" fill="#6B644A" d="M554.777 319.454l-21.031-37.896 1.318-.813z"/><path clip-path="url(#b)" fill-rule="evenodd" clip-rule="evenodd" fill="#6B654C" d="M554.777 319.454L534.8 280.908l1.333-.783z"/><path clip-path="url(#b)" fill-rule="evenodd" clip-rule="evenodd" fill="#68624B" d="M554.777 319.454l-18.911-39.173 1.348-.752z"/><path clip-path="url(#b)" fill-rule="evenodd" clip-rule="evenodd" fill="#68624B" d="M554.777 319.454l-17.832-39.775 1.36-.724z"/><path clip-path="url(#b)" fill-rule="evenodd" clip-rule="evenodd" fill="#66604A" d="M554.777 319.454L538.033 279.1l1.374-.693z"/><path clip-path="url(#b)" fill-rule="evenodd" clip-rule="evenodd" fill="#66604A" d="M554.777 319.454l-15.645-40.908 1.386-.663z"/><path clip-path="url(#b)" fill-rule="evenodd" clip-rule="evenodd" fill="#66604B" d="M554.777 319.454l-14.537-41.439 1.396-.63z"/><path clip-path="url(#b)" fill-rule="evenodd" clip-rule="evenodd" fill="#635E4A" d="M554.777 319.454l-13.419-41.943 1.405-.6z"/><path clip-path="url(#b)" fill-rule="evenodd" clip-rule="evenodd" fill="#635E4A" d="M554.777 319.454l-12.295-42.424 1.415-.567z"/><path clip-path="url(#b)" fill-rule="evenodd" clip-rule="evenodd" fill="#615C49" d="M554.777 319.454l-11.162-42.878 1.424-.535z"/><path clip-path="url(#b)" fill-rule="evenodd" clip-rule="evenodd" fill="#615C4A" d="M554.777 319.454l-10.024-43.305 1.433-.503z"/><path clip-path="url(#b)" fill-rule="evenodd" clip-rule="evenodd" fill="#615C4A" d="M554.777 319.454l-8.878-43.708 1.44-.471z"/><path clip-path="url(#b)" fill-rule="evenodd" clip-rule="evenodd" fill="#5F5A49" d="M554.777 319.454l-7.727-44.083 1.444-.438z"/><path clip-path="url(#b)" fill-rule="evenodd" clip-rule="evenodd" fill="#5F5A4A" d="M554.777 319.454l-6.571-44.434 1.449-.402z"/><path clip-path="url(#b)" fill-rule="evenodd" clip-rule="evenodd" fill="#5C5848" d="M554.777 319.454l-5.413-44.756 1.454-.37z"/><path clip-path="url(#b)" fill-rule="evenodd" clip-rule="evenodd" fill="#5C5849" d="M554.777 319.454l-4.251-45.052 1.458-.336z"/><path clip-path="url(#b)" fill-rule="evenodd" clip-rule="evenodd" fill="#5C584A" d="M554.777 319.454l-3.085-45.32 1.458-.301z"/><path clip-path="url(#b)" fill-rule="evenodd" clip-rule="evenodd" fill="#5A5648" d="M554.777 319.454l-1.918-45.562 1.46-.267z"/><path clip-path="url(#b)" fill-rule="evenodd" clip-rule="evenodd" fill="#5A5649" d="M554.777 319.454l-.75-45.776 1.46-.232z"/><path clip-path="url(#b)" fill-rule="evenodd" clip-rule="evenodd" fill="#5A564A" d="M554.777 319.454l.419-45.961 1.46-.198z"/><path clip-path="url(#b)" fill-rule="evenodd" clip-rule="evenodd" fill="#575448" d="M554.777 319.454l1.587-46.121 1.459-.163z"/><path clip-path="url(#b)" fill-rule="evenodd" clip-rule="evenodd" fill="#575449" d="M554.777 319.454l2.754-46.251 1.457-.129z"/><path clip-path="url(#b)" fill-rule="evenodd" clip-rule="evenodd" fill="#555247" d="M554.777 319.454l3.921-46.354 1.454-.094z"/><path clip-path="url(#b)" fill-rule="evenodd" clip-rule="evenodd" fill="#555248" d="M554.777 319.454l5.083-46.429 1.451-.059z"/><path clip-path="url(#b)" fill-rule="evenodd" clip-rule="evenodd" fill="#555248" d="M554.777 319.454l6.244-46.475 1.445-.025z"/><path clip-path="url(#b)" fill-rule="evenodd" clip-rule="evenodd" fill="#535046" d="M554.777 319.454l7.401-46.495 1.439.012z"/><path clip-path="url(#b)" fill-rule="evenodd" clip-rule="evenodd" fill="#535047" d="M554.777 319.454l8.553-46.485 1.433.045z"/><path clip-path="url(#b)" fill-rule="evenodd" clip-rule="evenodd" fill="#514D45" d="M554.777 319.454l9.699-46.45 1.426.083z"/><path clip-path="url(#b)" fill-rule="evenodd" clip-rule="evenodd" fill="#514D46" d="M554.777 319.454l10.84-46.383 1.418.116z"/><path clip-path="url(#b)" fill-rule="evenodd" clip-rule="evenodd" fill="#FFED00" d="M554.777 319.454l11.975-46.292 1.128.121z"/><path fill-rule="evenodd" clip-rule="evenodd" d="M87.865 352.134l22.893-85.423h18.968l-8.397 31.333c13.134-7.452 26.043-18.381 34.188-31.333h19.921c-6.967 14.033-20.509 27.565-40.665 40.574 6.237 6.505 11.915 14.541 15.257 22.925 2.673 6.827 4.05 14.598 3.723 21.924h-18.968c-.718-12.53-8.137-28.903-18.004-37.116l-9.946 37.116h-18.97zM271.9 287.917h17.875l-10.835 40.439-6.371 23.778h-17.875l4.777-17.825c-4.777.888-9.308 1.325-13.57 1.325-9.074 0-15.212-2.137-18.45-6.436-3.243-4.276-3.836-10.302-1.763-18.035l6.229-23.246h17.877l-5.71 21.312c-.986 3.683-.869 6.55.358 8.597 1.246 2.047 3.633 3.07 7.204 3.07 1.728 0 3.813-.227 6.226-.66 2.395-.454 4.333-.978 5.801-1.615l8.227-30.704zm11.848 41.974c-4.442 16.591 10.42 22.243 23.174 22.243 9.135 0 20.061-1.409 28.761-4.208l10.402-38.821c2.049-7.643 1.284-13.282-2.296-16.899-3.578-3.617-9.869-5.434-18.898-5.434-4.253 0-9.228.317-14.919.931-3.936.427-7.122.875-9.545 1.33l-3.702 13.817c7.844-1.433 14.726-2.159 20.638-2.159 4.845 0 8.086.638 9.677 1.91 1.593 1.273 2.01 3.365 1.236 6.253l-1.428 5.329c-5.055-2.434-10.184-2.985-15.052-2.985-12.909-.001-24.5 5.453-28.048 18.693zm18.675 1.354c1.3-8.405 16.275-9.511 21.324-5.488l-3.29 12.275c-6.33 1.769-19.502 2.693-18.034-6.787zm-143.963-1.354c-4.442 16.591 10.42 22.243 23.174 22.243 9.135 0 20.061-1.409 28.761-4.208l10.402-38.821c2.049-7.643 1.284-13.282-2.296-16.899-3.578-3.617-9.869-5.434-18.897-5.434-4.253 0-9.229.317-14.92.931-3.936.427-7.122.875-9.545 1.33l-3.702 13.817c7.845-1.433 14.726-2.159 20.638-2.159 4.845 0 8.086.638 9.677 1.91 1.593 1.273 2.01 3.365 1.236 6.253l-1.428 5.329c-5.055-2.434-10.184-2.985-15.052-2.985-12.91-.001-24.501 5.453-28.048 18.693zm18.674 1.354c1.3-8.405 16.275-9.511 21.324-5.488l-3.29 12.275c-6.33 1.769-19.502 2.693-18.034-6.787zm537.509-64.534c15.343 0 9.495 17.661-4.738 17.661-15.283 0-9.437-17.661 4.738-17.661zm-1.382 85.423l3.73-13.919h17.875l-3.73 13.919h-17.875zm5.137-19.169h17.875l17.751-66.254h-17.875l-17.751 66.254zm-30.495.178c-1.11 4.147-2.853 11.197.081 14.907 2.485 3.143 6.423 4.084 10.181 4.084 3.447 0 6.821-.495 10.112-1.494l3.33-12.424h-3.981c-1.25 0-1.997-.385-2.24-1.138-.24-.747-.093-2.116.442-4.116l12.07-45.044h-17.875l-12.12 45.225zm6.66-45.226l-15.258 56.94c-4.634 2.184-9.856 3.935-15.651 5.277-5.816 1.341-11.18 2-16.116 2-7.004 0-12.36-1.319-16.047-3.934-7.934 2.615-15.292 3.934-22.115 3.934-8.848 0-14.836-2.182-17.957-6.573-3.128-4.366-3.655-10.461-1.558-18.285l10.547-39.359h17.875l-10.078 37.608c-1.011 3.773-.958 6.71.148 8.779 1.13 2.07 3.38 3.093 6.768 3.093 3.283 0 8-1.47 10.903-3.001l12.456-46.478h17.875l-10.742 40.088c-1.673 6.25.849 9.392 7.604 9.392 3.196 0 7.904-.969 10.82-2.274l12.651-47.205h17.875v-.002zm-248.924 73.378l18.848-70.339c8.074-2.738 18.591-4.184 27.117-4.184 8.87 0 19.533 3.098 24.942 11.051 3.862 5.756 2.996 14.062 1.351 20.424l-.071.274c-2.777 10.734-7.457 18.99-13.774 24.835-6.319 5.844-13.975 8.779-22.981 8.779-4.843 0-9.736-.5-14.694-1.523l-2.863 10.684h-17.875v-.001zm24.364-24.217c2.485.751 5.496 1.138 9.02 1.138 4.598 0 8.505-1.486 11.715-4.45 3.57-3.294 6.284-8.426 8.154-15.382 1.455-5.437 1.516-11.008-.652-13.692-2.175-2.661-5.637-4.002-10.368-4.002-2.866 0-5.668.363-8.406 1.068l-9.463 35.32zm-51.444-41.779l-15.231 56.835h18.968l14.078-52.582c1.755-6.555 4.509-11.19 8.216-13.966 3.702-2.751 8.969-4.139 15.814-4.139h16.743l3.966-14.737h-25.109c-10.049 0-18.166 2.321-24.28 6.937-6.114 4.617-10.533 11.827-13.165 21.652zm-3.483-7.382l-15.258 56.94c-4.769 2.184-10.15 3.935-16.173 5.277-6.001 1.341-11.635 2-16.867 2-9.074 0-15.211-2.137-18.449-6.436-3.243-4.276-3.836-10.302-1.763-18.035l10.652-39.746h17.877l-10.133 37.812c-.986 3.683-.868 6.55.358 8.597 1.246 2.047 3.633 3.07 7.204 3.07 1.727 0 3.813-.227 6.226-.659 2.395-.455 4.332-.979 5.801-1.615l12.65-47.205H384.92l10.35-21.207h17.875l-15.944 21.207h17.875z"/></svg>