<?xml version="1.0" encoding="utf-8"?>
<!-- Generator: Adobe Illustrator 17.0.0, SVG Export Plug-In . SVG Version: 6.00 Build 0)  -->
<!DOCTYPE svg PUBLIC "-//W3C//DTD SVG 1.1//EN" "http://www.w3.org/Graphics/SVG/1.1/DTD/svg11.dtd">
<svg version="1.1" id="Layer_1" xmlns="http://www.w3.org/2000/svg" xmlns:xlink="http://www.w3.org/1999/xlink" x="0px" y="0px"
	 width="841.89px" height="187.027px" viewBox="0 0 841.89 187.027" enable-background="new 0 0 841.89 187.027"
	 xml:space="preserve">
<g>
	<path fill-rule="evenodd" clip-rule="evenodd" fill="#FFED00" d="M120.346,110.956l-36.808,36.814L122.64,1.849
		c0.21-1.119-0.153-1.726-1.147-1.726l-15.949,0.014c-0.992,0-1.685,0.612-1.897,1.726L54.495,185.306
		c-0.316,1.115,0.027,1.721,1.043,1.721l10.589-0.008c2.74-0.002,5.188-1.116,7.323-3.251l58.273-58.272H806.99
		c1.117,0,1.807-0.498,2.08-1.521L841.833,1.723C842.043,0.606,841.672,0,840.682,0l-15.908,0.013c-0.988,0-1.684,0.611-1.902,1.726
		l-28.264,105.434H129.171C124.244,107.174,123.83,107.692,120.346,110.956z"/>
	<path fill-rule="evenodd" clip-rule="evenodd" d="M127.782,88.851l22.892-85.423h18.968l-8.397,31.333
		c13.133-7.453,26.043-18.381,34.187-31.333h19.921c-6.967,14.033-20.508,27.564-40.664,40.574
		c6.237,6.504,11.915,14.541,15.256,22.925c2.674,6.827,4.051,14.597,3.723,21.924H174.7c-0.717-12.529-8.137-28.902-18.004-37.116
		l-9.946,37.116H127.782L127.782,88.851z M311.818,24.635h17.875l-10.836,40.439l-6.371,23.777h-17.875l4.777-17.825
		c-4.777,0.888-9.308,1.325-13.571,1.325c-9.074,0-15.211-2.137-18.449-6.435c-3.243-4.276-3.836-10.302-1.763-18.035l6.229-23.246
		h17.877l-5.71,21.311c-0.986,3.683-0.869,6.55,0.358,8.597c1.246,2.047,3.633,3.07,7.204,3.07c1.727,0,3.813-0.227,6.226-0.659
		c2.395-0.454,4.332-0.979,5.801-1.615L311.818,24.635L311.818,24.635z M323.665,66.608c-4.442,16.591,10.42,22.243,23.175,22.243
		c9.135,0,20.06-1.408,28.761-4.208l10.402-38.821c2.048-7.643,1.284-13.282-2.297-16.899c-3.578-3.617-9.868-5.435-18.897-5.435
		c-4.253,0-9.228,0.318-14.919,0.932c-3.936,0.427-7.123,0.875-9.545,1.329l-3.702,13.817c7.844-1.433,14.726-2.16,20.637-2.16
		c4.845,0,8.086,0.639,9.677,1.91c1.592,1.274,2.009,3.365,1.236,6.254l-1.428,5.328c-5.054-2.433-10.184-2.985-15.051-2.985
		C338.804,47.914,327.212,53.368,323.665,66.608L323.665,66.608L323.665,66.608z M342.34,67.963
		c1.301-8.405,16.275-9.511,21.324-5.488l-3.289,12.274C354.044,76.519,340.872,77.442,342.34,67.963L342.34,67.963z
		 M198.376,66.608c-4.442,16.591,10.42,22.243,23.175,22.243c9.135,0,20.061-1.408,28.761-4.208l10.402-38.821
		c2.049-7.643,1.284-13.282-2.297-16.899c-3.578-3.617-9.868-5.435-18.897-5.435c-4.253,0-9.229,0.318-14.919,0.932
		c-3.936,0.427-7.122,0.875-9.545,1.329l-3.702,13.817c7.844-1.433,14.726-2.16,20.638-2.16c4.844,0,8.086,0.639,9.677,1.91
		c1.592,1.274,2.01,3.365,1.236,6.254l-1.428,5.328c-5.054-2.433-10.184-2.985-15.051-2.985
		C213.515,47.914,201.923,53.368,198.376,66.608L198.376,66.608L198.376,66.608z M217.051,67.963
		c1.301-8.405,16.275-9.511,21.325-5.488l-3.29,12.274C228.755,76.519,215.583,77.442,217.051,67.963L217.051,67.963z M754.56,3.428
		c15.344,0,9.495,17.661-4.738,17.661C734.539,21.089,740.385,3.428,754.56,3.428L754.56,3.428z M753.179,88.851l3.729-13.919
		h17.875l-3.729,13.919H753.179L753.179,88.851z M758.315,69.682h17.875l17.751-66.253h-17.875L758.315,69.682L758.315,69.682z
		 M727.82,69.861c-1.11,4.147-2.853,11.196,0.081,14.906c2.485,3.143,6.423,4.084,10.181,4.084c3.447,0,6.821-0.495,10.112-1.494
		l3.33-12.425h-3.981c-1.251,0-1.997-0.385-2.24-1.138c-0.24-0.746-0.094-2.116,0.442-4.116l12.07-45.043h-17.875L727.82,69.861
		L727.82,69.861z M734.479,24.635l-15.258,56.94c-4.634,2.184-9.856,3.934-15.652,5.277c-5.816,1.341-11.18,2-16.115,2
		c-7.005,0-12.36-1.318-16.048-3.934c-7.934,2.616-15.292,3.934-22.114,3.934c-8.848,0-14.836-2.182-17.958-6.572
		c-3.128-4.366-3.655-10.462-1.558-18.285l10.547-39.359h17.875l-10.078,37.607c-1.01,3.773-0.957,6.71,0.148,8.779
		c1.13,2.069,3.38,3.092,6.768,3.092c3.283,0,8-1.47,10.903-3.001l12.455-46.478h17.875l-10.742,40.088
		c-1.673,6.25,0.849,9.391,7.604,9.391c3.196,0,7.904-0.968,10.821-2.274l12.65-47.205H734.479L734.479,24.635z M562.711,57.125
		c-2.846,10.621-2.245,18.559,1.778,23.834c4.027,5.254,11.19,7.892,21.447,7.892c10.234,0,18.788-2.638,25.653-7.892
		c6.871-5.275,11.729-13.212,14.575-23.834l0.531-1.979c2.833-10.574,2.224-18.489-1.82-23.766
		c-4.05-5.254-11.19-7.891-21.424-7.891c-10.256,0-18.833,2.637-25.676,7.891c-6.85,5.276-11.7,13.191-14.533,23.766L562.711,57.125
		L562.711,57.125z M581.683,57.103l0.517-1.934c1.567-5.844,3.825-10.279,6.789-13.282c2.937-2.979,6.523-4.479,10.731-4.479
		c8.505,0,11.161,5.959,7.962,17.898l-0.48,1.797c-1.553,5.799-3.834,10.234-6.813,13.282c-2.993,3.025-6.563,4.548-10.724,4.548
		c-4.209,0-6.988-1.5-8.316-4.525C579.999,67.382,580.117,62.947,581.683,57.103L581.683,57.103z M485.556,98.013l18.847-70.34
		c8.075-2.738,18.591-4.184,27.117-4.184c8.871,0,19.534,3.098,24.943,11.052c3.862,5.755,2.996,14.062,1.35,20.423l-0.07,0.274
		c-2.777,10.734-7.457,18.991-13.774,24.835c-6.32,5.844-13.975,8.779-22.981,8.779c-4.843,0-9.736-0.499-14.694-1.523
		l-2.862,10.684H485.556L485.556,98.013z M509.919,73.795c2.485,0.751,5.496,1.138,9.021,1.138c4.598,0,8.505-1.486,11.715-4.45
		c3.57-3.294,6.284-8.426,8.153-15.382l0,0c1.456-5.436,1.517-11.008-0.651-13.691c-2.176-2.661-5.638-4.002-10.368-4.002
		c-2.866,0-5.669,0.363-8.407,1.069L509.919,73.795L509.919,73.795z M458.476,32.016l-15.23,56.835h18.968l14.078-52.582
		c1.755-6.555,4.51-11.19,8.216-13.965c3.702-2.751,8.969-4.139,15.814-4.139h16.742l3.966-14.737h-25.109
		c-10.049,0-18.165,2.32-24.28,6.937C465.527,14.981,461.108,22.191,458.476,32.016L458.476,32.016z M454.993,24.635l-15.258,56.94
		c-4.769,2.184-10.151,3.934-16.174,5.277c-6,1.341-11.635,2-16.866,2c-9.074,0-15.212-2.137-18.45-6.435
		c-3.243-4.276-3.836-10.302-1.763-18.035l10.652-39.746h17.877l-10.133,37.812c-0.986,3.683-0.869,6.55,0.358,8.597
		c1.246,2.047,3.633,3.07,7.204,3.07c1.728,0,3.813-0.227,6.226-0.659c2.395-0.454,4.333-0.979,5.801-1.615l12.65-47.205h-12.281
		l10.35-21.207h17.876l-15.945,21.207H454.993z"/>
	<path fill-rule="evenodd" clip-rule="evenodd" d="M75.91,34.636H65.903l2.661-10.001h-14.07l-2.661,10.001h-15.89l2.66-10.001
		H24.546l-2.679,10.001h-9.978l-3.781,14.21h9.951L13.816,64.64H3.765L0,78.85h10.002L7.341,88.851h14.073l2.659-10.002H40.03
		l-2.722,10.002H51.36l2.68-10.002h9.991l3.868-14.209H57.866l4.234-15.794h10.042L75.91,34.636L75.91,34.636z M48.001,48.846
		L43.772,64.64h-15.89l4.232-15.794H48.001z"/>
</g>
<g>
	<g>
		<g>
			<defs>
				<path id="SVGID_1_" d="M587.252,322.932c-4.896,18.054-23.406,31.13-41.341,29.21c-17.935-1.923-28.505-18.117-23.608-36.17
					c4.896-18.053,23.405-31.13,41.34-29.209C581.577,288.686,592.149,304.879,587.252,322.932z"/>
			</defs>
			<clipPath id="SVGID_2_">
				<use xlink:href="#SVGID_1_"  overflow="visible"/>
			</clipPath>
			<polygon clip-path="url(#SVGID_2_)" fill-rule="evenodd" clip-rule="evenodd" fill="#FFED00" points="554.777,319.454 
				567.6,273.246 569.279,273.47 			"/>
			<polygon clip-path="url(#SVGID_2_)" fill-rule="evenodd" clip-rule="evenodd" fill="#FFED00" points="554.777,319.454 
				568.998,273.433 570.387,273.652 			"/>
			<polygon clip-path="url(#SVGID_2_)" fill-rule="evenodd" clip-rule="evenodd" fill="#FFEC00" points="554.777,319.454 
				570.109,273.609 571.487,273.863 			"/>
			<polygon clip-path="url(#SVGID_2_)" fill-rule="evenodd" clip-rule="evenodd" fill="#FFEC00" points="554.777,319.454 
				571.211,273.813 572.576,274.102 			"/>
			<polygon clip-path="url(#SVGID_2_)" fill-rule="evenodd" clip-rule="evenodd" fill="#FFEC00" points="554.777,319.454 
				572.302,274.044 573.654,274.368 			"/>
			<polygon clip-path="url(#SVGID_2_)" fill-rule="evenodd" clip-rule="evenodd" fill="#FFEA00" points="554.777,319.454 
				573.384,274.303 574.721,274.659 			"/>
			<polygon clip-path="url(#SVGID_2_)" fill-rule="evenodd" clip-rule="evenodd" fill="#FFEA00" points="554.777,319.454 
				574.454,274.589 575.777,274.981 			"/>
			<polygon clip-path="url(#SVGID_2_)" fill-rule="evenodd" clip-rule="evenodd" fill="#FFE900" points="554.777,319.454 
				575.511,274.902 576.818,275.327 			"/>
			<polygon clip-path="url(#SVGID_2_)" fill-rule="evenodd" clip-rule="evenodd" fill="#FFE900" points="554.777,319.454 
				576.557,275.242 577.848,275.699 			"/>
			<polygon clip-path="url(#SVGID_2_)" fill-rule="evenodd" clip-rule="evenodd" fill="#FFE900" points="554.777,319.454 
				577.591,275.609 578.864,276.099 			"/>
			<polygon clip-path="url(#SVGID_2_)" fill-rule="evenodd" clip-rule="evenodd" fill="#FFE700" points="554.777,319.454 
				578.609,276.001 579.864,276.524 			"/>
			<polygon clip-path="url(#SVGID_2_)" fill-rule="evenodd" clip-rule="evenodd" fill="#FFE700" points="554.777,319.454 
				579.613,276.42 580.849,276.976 			"/>
			<polygon clip-path="url(#SVGID_2_)" fill-rule="evenodd" clip-rule="evenodd" fill="#FFE700" points="554.777,319.454 
				580.602,276.864 581.82,277.453 			"/>
			<polygon clip-path="url(#SVGID_2_)" fill-rule="evenodd" clip-rule="evenodd" fill="#FFE700" points="554.777,319.454 
				581.576,277.335 582.774,277.955 			"/>
			<polygon clip-path="url(#SVGID_2_)" fill-rule="evenodd" clip-rule="evenodd" fill="#FFE600" points="554.777,319.454 
				582.533,277.831 583.71,278.482 			"/>
			<polygon clip-path="url(#SVGID_2_)" fill-rule="evenodd" clip-rule="evenodd" fill="#FFE600" points="554.777,319.454 
				583.475,278.352 584.63,279.036 			"/>
			<polygon clip-path="url(#SVGID_2_)" fill-rule="evenodd" clip-rule="evenodd" fill="#FFE600" points="554.777,319.454 
				584.398,278.899 585.531,279.61 			"/>
			<polygon clip-path="url(#SVGID_2_)" fill-rule="evenodd" clip-rule="evenodd" fill="#FFE400" points="554.777,319.454 
				585.304,279.469 586.414,280.212 			"/>
			<polygon clip-path="url(#SVGID_2_)" fill-rule="evenodd" clip-rule="evenodd" fill="#FFE400" points="554.777,319.454 
				586.192,280.064 587.278,280.836 			"/>
			<polygon clip-path="url(#SVGID_2_)" fill-rule="evenodd" clip-rule="evenodd" fill="#FDE300" points="554.777,319.454 
				587.061,280.681 588.123,281.483 			"/>
			<polygon clip-path="url(#SVGID_2_)" fill-rule="evenodd" clip-rule="evenodd" fill="#FDE300" points="554.777,319.454 
				587.91,281.322 588.946,282.153 			"/>
			<polygon clip-path="url(#SVGID_2_)" fill-rule="evenodd" clip-rule="evenodd" fill="#FDE300" points="554.777,319.454 
				588.738,281.987 589.751,282.846 			"/>
			<polygon clip-path="url(#SVGID_2_)" fill-rule="evenodd" clip-rule="evenodd" fill="#FDE300" points="554.777,319.454 
				589.548,282.675 590.532,283.561 			"/>
			<polygon clip-path="url(#SVGID_2_)" fill-rule="evenodd" clip-rule="evenodd" fill="#FDE300" points="554.777,319.454 
				590.336,283.384 591.293,284.296 			"/>
			<polygon clip-path="url(#SVGID_2_)" fill-rule="evenodd" clip-rule="evenodd" fill="#FBE100" points="554.777,319.454 
				591.101,284.114 592.033,285.053 			"/>
			<polygon clip-path="url(#SVGID_2_)" fill-rule="evenodd" clip-rule="evenodd" fill="#FBE100" points="554.777,319.454 
				591.846,284.866 592.748,285.832 			"/>
			<polygon clip-path="url(#SVGID_2_)" fill-rule="evenodd" clip-rule="evenodd" fill="#FBE100" points="554.777,319.454 
				592.568,285.638 593.443,286.631 			"/>
			<polygon clip-path="url(#SVGID_2_)" fill-rule="evenodd" clip-rule="evenodd" fill="#F9DF00" points="554.777,319.454 
				593.267,286.433 594.113,287.448 			"/>
			<polygon clip-path="url(#SVGID_2_)" fill-rule="evenodd" clip-rule="evenodd" fill="#F9DF00" points="554.777,319.454 
				593.944,287.245 594.76,288.286 			"/>
			<polygon clip-path="url(#SVGID_2_)" fill-rule="evenodd" clip-rule="evenodd" fill="#F9DF00" points="554.777,319.454 
				594.597,288.079 595.382,289.143 			"/>
			<polygon clip-path="url(#SVGID_2_)" fill-rule="evenodd" clip-rule="evenodd" fill="#F9DF00" points="554.777,319.454 
				595.225,288.929 595.98,290.018 			"/>
			<polygon clip-path="url(#SVGID_2_)" fill-rule="evenodd" clip-rule="evenodd" fill="#F9DE00" points="554.777,319.454 
				595.83,289.8 596.554,290.909 			"/>
			<polygon clip-path="url(#SVGID_2_)" fill-rule="evenodd" clip-rule="evenodd" fill="#F7DC00" points="554.777,319.454 
				596.409,290.688 597.102,291.819 			"/>
			<polygon clip-path="url(#SVGID_2_)" fill-rule="evenodd" clip-rule="evenodd" fill="#F7DC00" points="554.777,319.454 
				596.963,291.592 597.624,292.745 			"/>
			<polygon clip-path="url(#SVGID_2_)" fill-rule="evenodd" clip-rule="evenodd" fill="#F7DC00" points="554.777,319.454 
				597.492,292.514 598.122,293.687 			"/>
			<polygon clip-path="url(#SVGID_2_)" fill-rule="evenodd" clip-rule="evenodd" fill="#F5DA00" points="554.777,319.454 
				597.996,293.452 598.592,294.645 			"/>
			<polygon clip-path="url(#SVGID_2_)" fill-rule="evenodd" clip-rule="evenodd" fill="#F5DA00" points="554.777,319.454 
				598.473,294.406 599.035,295.616 			"/>
			<polygon clip-path="url(#SVGID_2_)" fill-rule="evenodd" clip-rule="evenodd" fill="#F5DA00" points="554.777,319.454 
				598.924,295.375 599.454,296.605 			"/>
			<polygon clip-path="url(#SVGID_2_)" fill-rule="evenodd" clip-rule="evenodd" fill="#F5DA00" points="554.777,319.454 
				599.348,296.358 599.844,297.605 			"/>
			<polygon clip-path="url(#SVGID_2_)" fill-rule="evenodd" clip-rule="evenodd" fill="#F5DA00" points="554.777,319.454 
				599.745,297.356 600.209,298.619 			"/>
			<polygon clip-path="url(#SVGID_2_)" fill-rule="evenodd" clip-rule="evenodd" fill="#F3D900" points="554.777,319.454 
				600.116,298.366 600.544,299.646 			"/>
			<polygon clip-path="url(#SVGID_2_)" fill-rule="evenodd" clip-rule="evenodd" fill="#F2D700" points="554.777,319.454 
				600.458,299.389 600.854,300.683 			"/>
			<polygon clip-path="url(#SVGID_2_)" fill-rule="evenodd" clip-rule="evenodd" fill="#F2D700" points="554.777,319.454 
				600.775,300.424 601.134,301.733 			"/>
			<polygon clip-path="url(#SVGID_2_)" fill-rule="evenodd" clip-rule="evenodd" fill="#F0D500" points="554.777,319.454 
				601.063,301.472 601.387,302.793 			"/>
			<polygon clip-path="url(#SVGID_2_)" fill-rule="evenodd" clip-rule="evenodd" fill="#F0D500" points="554.777,319.454 
				601.323,302.529 601.613,303.863 			"/>
			<polygon clip-path="url(#SVGID_2_)" fill-rule="evenodd" clip-rule="evenodd" fill="#F0D500" points="554.777,319.454 
				601.555,303.598 601.809,304.943 			"/>
			<polygon clip-path="url(#SVGID_2_)" fill-rule="evenodd" clip-rule="evenodd" fill="#F0D500" points="554.777,319.454 
				601.758,304.674 601.977,306.033 			"/>
			<polygon clip-path="url(#SVGID_2_)" fill-rule="evenodd" clip-rule="evenodd" fill="#F0D500" points="554.777,319.454 
				601.933,305.761 602.117,307.129 			"/>
			<polygon clip-path="url(#SVGID_2_)" fill-rule="evenodd" clip-rule="evenodd" fill="#EED400" points="554.777,319.454 
				602.08,306.855 602.228,308.233 			"/>
			<polygon clip-path="url(#SVGID_2_)" fill-rule="evenodd" clip-rule="evenodd" fill="#EED400" points="554.777,319.454 
				602.199,307.957 602.312,309.343 			"/>
			<polygon clip-path="url(#SVGID_2_)" fill-rule="evenodd" clip-rule="evenodd" fill="#EED400" points="554.777,319.454 
				602.289,309.066 602.365,310.46 			"/>
			<polygon clip-path="url(#SVGID_2_)" fill-rule="evenodd" clip-rule="evenodd" fill="#EED400" points="554.777,319.454 
				602.351,310.181 602.391,311.584 			"/>
			<polygon clip-path="url(#SVGID_2_)" fill-rule="evenodd" clip-rule="evenodd" fill="#ECD200" points="554.777,319.454 
				602.383,311.303 602.388,312.71 			"/>
			<polygon clip-path="url(#SVGID_2_)" fill-rule="evenodd" clip-rule="evenodd" fill="#ECD200" points="554.777,319.454 
				602.388,312.428 602.357,313.842 			"/>
			<polygon clip-path="url(#SVGID_2_)" fill-rule="evenodd" clip-rule="evenodd" fill="#ECD200" points="554.777,319.454 
				602.362,313.558 602.296,314.976 			"/>
			<polygon clip-path="url(#SVGID_2_)" fill-rule="evenodd" clip-rule="evenodd" fill="#ECD200" points="554.777,319.454 
				602.309,314.693 602.207,316.113 			"/>
			<polygon clip-path="url(#SVGID_2_)" fill-rule="evenodd" clip-rule="evenodd" fill="#ECD000" points="554.777,319.454 
				602.227,315.829 602.09,317.252 			"/>
			<polygon clip-path="url(#SVGID_2_)" fill-rule="evenodd" clip-rule="evenodd" fill="#EACF00" points="554.777,319.454 
				602.117,316.967 601.943,318.393 			"/>
			<polygon clip-path="url(#SVGID_2_)" fill-rule="evenodd" clip-rule="evenodd" fill="#EACF00" points="554.777,319.454 
				601.978,318.108 601.769,319.534 			"/>
			<polygon clip-path="url(#SVGID_2_)" fill-rule="evenodd" clip-rule="evenodd" fill="#EACF00" points="554.777,319.454 
				601.811,319.249 601.566,320.675 			"/>
			<polygon clip-path="url(#SVGID_2_)" fill-rule="evenodd" clip-rule="evenodd" fill="#E8CD00" points="554.777,319.454 
				601.614,320.39 601.335,321.815 			"/>
			<polygon clip-path="url(#SVGID_2_)" fill-rule="evenodd" clip-rule="evenodd" fill="#E8CD00" points="554.777,319.454 
				601.39,321.53 601.076,322.954 			"/>
			<polygon clip-path="url(#SVGID_2_)" fill-rule="evenodd" clip-rule="evenodd" fill="#E8CD00" points="554.777,319.454 
				601.139,322.669 600.789,324.09 			"/>
			<polygon clip-path="url(#SVGID_2_)" fill-rule="evenodd" clip-rule="evenodd" fill="#E8CD00" points="554.777,319.454 
				600.858,323.807 600.473,325.225 			"/>
			<polygon clip-path="url(#SVGID_2_)" fill-rule="evenodd" clip-rule="evenodd" fill="#E8CD00" points="554.777,319.454 
				600.551,324.942 600.132,326.355 			"/>
			<polygon clip-path="url(#SVGID_2_)" fill-rule="evenodd" clip-rule="evenodd" fill="#E6CB00" points="554.777,319.454 
				600.215,326.073 599.763,327.481 			"/>
			<polygon clip-path="url(#SVGID_2_)" fill-rule="evenodd" clip-rule="evenodd" fill="#E6CB00" points="554.777,319.454 
				599.852,327.199 599.366,328.603 			"/>
			<polygon clip-path="url(#SVGID_2_)" fill-rule="evenodd" clip-rule="evenodd" fill="#E6CB00" points="554.777,319.454 
				599.462,328.323 598.942,329.72 			"/>
			<polygon clip-path="url(#SVGID_2_)" fill-rule="evenodd" clip-rule="evenodd" fill="#E6CB00" points="554.777,319.454 
				599.047,329.44 598.492,330.829 			"/>
			<polygon clip-path="url(#SVGID_2_)" fill-rule="evenodd" clip-rule="evenodd" fill="#E6CB00" points="554.777,319.454 
				598.602,330.552 598.015,331.933 			"/>
			<polygon clip-path="url(#SVGID_2_)" fill-rule="evenodd" clip-rule="evenodd" fill="#E4C900" points="554.777,319.454 
				598.133,331.656 597.513,333.029 			"/>
			<polygon clip-path="url(#SVGID_2_)" fill-rule="evenodd" clip-rule="evenodd" fill="#E3C800" points="554.777,319.454 
				597.637,332.753 596.986,334.116 			"/>
			<polygon clip-path="url(#SVGID_2_)" fill-rule="evenodd" clip-rule="evenodd" fill="#E3C800" points="554.777,319.454 
				597.116,333.843 596.431,335.194 			"/>
			<polygon clip-path="url(#SVGID_2_)" fill-rule="evenodd" clip-rule="evenodd" fill="#E1C600" points="554.777,319.454 
				596.568,334.925 595.852,336.264 			"/>
			<polygon clip-path="url(#SVGID_2_)" fill-rule="evenodd" clip-rule="evenodd" fill="#E1C600" points="554.777,319.454 
				595.996,335.995 595.25,337.322 			"/>
			<polygon clip-path="url(#SVGID_2_)" fill-rule="evenodd" clip-rule="evenodd" fill="#E1C600" points="554.777,319.454 
				595.398,337.057 594.621,338.37 			"/>
			<polygon clip-path="url(#SVGID_2_)" fill-rule="evenodd" clip-rule="evenodd" fill="#E1C600" points="554.777,319.454 
				594.776,338.107 593.968,339.407 			"/>
			<polygon clip-path="url(#SVGID_2_)" fill-rule="evenodd" clip-rule="evenodd" fill="#E1C600" points="554.777,319.454 
				594.131,339.147 593.293,340.432 			"/>
			<polygon clip-path="url(#SVGID_2_)" fill-rule="evenodd" clip-rule="evenodd" fill="#DFC400" points="554.777,319.454 
				593.461,340.175 592.595,341.444 			"/>
			<polygon clip-path="url(#SVGID_2_)" fill-rule="evenodd" clip-rule="evenodd" fill="#DFC400" points="554.777,319.454 
				592.767,341.189 591.873,342.443 			"/>
			<polygon clip-path="url(#SVGID_2_)" fill-rule="evenodd" clip-rule="evenodd" fill="#DFC300" points="554.777,319.454 
				592.052,342.192 591.13,343.428 			"/>
			<polygon clip-path="url(#SVGID_2_)" fill-rule="evenodd" clip-rule="evenodd" fill="#DDC100" points="554.777,319.454 
				591.314,343.18 590.365,344.398 			"/>
			<polygon clip-path="url(#SVGID_2_)" fill-rule="evenodd" clip-rule="evenodd" fill="#DDC100" points="554.777,319.454 
				590.555,344.155 589.577,345.354 			"/>
			<polygon clip-path="url(#SVGID_2_)" fill-rule="evenodd" clip-rule="evenodd" fill="#DDC100" points="554.777,319.454 
				589.773,345.113 588.769,346.293 			"/>
			<polygon clip-path="url(#SVGID_2_)" fill-rule="evenodd" clip-rule="evenodd" fill="#DDC100" points="554.777,319.454 
				588.969,346.058 587.941,347.217 			"/>
			<polygon clip-path="url(#SVGID_2_)" fill-rule="evenodd" clip-rule="evenodd" fill="#DDC100" points="554.777,319.454 
				588.147,346.985 587.091,348.124 			"/>
			<polygon clip-path="url(#SVGID_2_)" fill-rule="evenodd" clip-rule="evenodd" fill="#DBBF00" points="554.777,319.454 
				587.302,347.897 586.224,349.014 			"/>
			<polygon clip-path="url(#SVGID_2_)" fill-rule="evenodd" clip-rule="evenodd" fill="#DBBF00" points="554.777,319.454 
				586.44,348.79 585.336,349.886 			"/>
			<polygon clip-path="url(#SVGID_2_)" fill-rule="evenodd" clip-rule="evenodd" fill="#DBBF00" points="554.777,319.454 
				585.557,349.667 584.432,350.74 			"/>
			<polygon clip-path="url(#SVGID_2_)" fill-rule="evenodd" clip-rule="evenodd" fill="#DBBF00" points="554.777,319.454 
				584.656,350.526 583.508,351.575 			"/>
			<polygon clip-path="url(#SVGID_2_)" fill-rule="evenodd" clip-rule="evenodd" fill="#D9BD00" points="554.777,319.454 
				583.737,351.364 582.567,352.391 			"/>
			<polygon clip-path="url(#SVGID_2_)" fill-rule="evenodd" clip-rule="evenodd" fill="#D9BD00" points="554.777,319.454 
				582.803,352.184 581.61,353.185 			"/>
			<polygon clip-path="url(#SVGID_2_)" fill-rule="evenodd" clip-rule="evenodd" fill="#D9BD00" points="554.777,319.454 
				581.849,352.985 580.636,353.96 			"/>
			<polygon clip-path="url(#SVGID_2_)" fill-rule="evenodd" clip-rule="evenodd" fill="#D9BD00" points="554.777,319.454 
				580.88,353.765 579.648,354.714 			"/>
			<polygon clip-path="url(#SVGID_2_)" fill-rule="evenodd" clip-rule="evenodd" fill="#D9BD00" points="554.777,319.454 
				579.895,354.524 578.644,355.448 			"/>
			<polygon clip-path="url(#SVGID_2_)" fill-rule="evenodd" clip-rule="evenodd" fill="#D6BA00" points="554.777,319.454 
				578.894,355.264 577.626,356.16 			"/>
			<polygon clip-path="url(#SVGID_2_)" fill-rule="evenodd" clip-rule="evenodd" fill="#D6BA00" points="554.777,319.454 
				577.879,355.979 576.593,356.848 			"/>
			<polygon clip-path="url(#SVGID_2_)" fill-rule="evenodd" clip-rule="evenodd" fill="#D6BA00" points="554.777,319.454 
				576.85,356.676 575.548,357.516 			"/>
			<polygon clip-path="url(#SVGID_2_)" fill-rule="evenodd" clip-rule="evenodd" fill="#D4B800" points="554.777,319.454 
				575.809,357.348 574.491,358.16 			"/>
			<polygon clip-path="url(#SVGID_2_)" fill-rule="evenodd" clip-rule="evenodd" fill="#D4B800" points="554.777,319.454 
				574.754,357.997 573.421,358.781 			"/>
			<polygon clip-path="url(#SVGID_2_)" fill-rule="evenodd" clip-rule="evenodd" fill="#D4B800" points="554.777,319.454 
				573.687,358.624 572.339,359.377 			"/>
			<polygon clip-path="url(#SVGID_2_)" fill-rule="evenodd" clip-rule="evenodd" fill="#D4B800" points="554.777,319.454 
				572.61,359.227 571.248,359.951 			"/>
			<polygon clip-path="url(#SVGID_2_)" fill-rule="evenodd" clip-rule="evenodd" fill="#D4B800" points="554.777,319.454 
				571.52,359.806 570.147,360.499 			"/>
			<polygon clip-path="url(#SVGID_2_)" fill-rule="evenodd" clip-rule="evenodd" fill="#D2B600" points="554.777,319.454 
				570.421,360.36 569.037,361.023 			"/>
			<polygon clip-path="url(#SVGID_2_)" fill-rule="evenodd" clip-rule="evenodd" fill="#D2B600" points="554.777,319.454 
				569.314,360.891 567.917,361.522 			"/>
			<polygon clip-path="url(#SVGID_2_)" fill-rule="evenodd" clip-rule="evenodd" fill="#D2B500" points="554.777,319.454 
				568.195,361.395 566.79,361.994 			"/>
			<polygon clip-path="url(#SVGID_2_)" fill-rule="evenodd" clip-rule="evenodd" fill="#D2B500" points="554.777,319.454 
				567.071,361.875 565.656,362.442 			"/>
			<polygon clip-path="url(#SVGID_2_)" fill-rule="evenodd" clip-rule="evenodd" fill="#D2B500" points="554.777,319.454 
				565.939,362.33 564.514,362.865 			"/>
			<polygon clip-path="url(#SVGID_2_)" fill-rule="evenodd" clip-rule="evenodd" fill="#CFB300" points="554.777,319.454 
				564.8,362.758 563.367,363.261 			"/>
			<polygon clip-path="url(#SVGID_2_)" fill-rule="evenodd" clip-rule="evenodd" fill="#CFB300" points="554.777,319.454 
				563.654,363.16 562.216,363.63 			"/>
			<polygon clip-path="url(#SVGID_2_)" fill-rule="evenodd" clip-rule="evenodd" fill="#CFB300" points="554.777,319.454 
				562.503,363.535 561.059,363.972 			"/>
			<polygon clip-path="url(#SVGID_2_)" fill-rule="evenodd" clip-rule="evenodd" fill="#CDB100" points="554.777,319.454 
				561.348,363.885 559.899,364.288 			"/>
			<polygon clip-path="url(#SVGID_2_)" fill-rule="evenodd" clip-rule="evenodd" fill="#CDB100" points="554.777,319.454 
				560.189,364.207 558.735,364.578 			"/>
			<polygon clip-path="url(#SVGID_2_)" fill-rule="evenodd" clip-rule="evenodd" fill="#CDB100" points="554.777,319.454 
				559.027,364.504 557.57,364.839 			"/>
			<polygon clip-path="url(#SVGID_2_)" fill-rule="evenodd" clip-rule="evenodd" fill="#CDB100" points="554.777,319.454 
				557.862,364.771 556.403,365.074 			"/>
			<polygon clip-path="url(#SVGID_2_)" fill-rule="evenodd" clip-rule="evenodd" fill="#CDB100" points="554.777,319.454 
				556.694,365.013 555.234,365.281 			"/>
			<polygon clip-path="url(#SVGID_2_)" fill-rule="evenodd" clip-rule="evenodd" fill="#CBAF00" points="554.777,319.454 
				555.526,365.228 554.066,365.46 			"/>
			<polygon clip-path="url(#SVGID_2_)" fill-rule="evenodd" clip-rule="evenodd" fill="#CBAF00" points="554.777,319.454 
				554.357,365.413 552.897,365.611 			"/>
			<polygon clip-path="url(#SVGID_2_)" fill-rule="evenodd" clip-rule="evenodd" fill="#CBAF00" points="554.777,319.454 
				553.189,365.572 551.731,365.735 			"/>
			<polygon clip-path="url(#SVGID_2_)" fill-rule="evenodd" clip-rule="evenodd" fill="#CBAF00" points="554.777,319.454 
				552.022,365.703 550.565,365.832 			"/>
			<polygon clip-path="url(#SVGID_2_)" fill-rule="evenodd" clip-rule="evenodd" fill="#C9AC00" points="554.777,319.454 
				550.857,365.806 549.402,365.9 			"/>
			<polygon clip-path="url(#SVGID_2_)" fill-rule="evenodd" clip-rule="evenodd" fill="#C9AC00" points="554.777,319.454 
				549.693,365.881 548.242,365.94 			"/>
			<polygon clip-path="url(#SVGID_2_)" fill-rule="evenodd" clip-rule="evenodd" fill="#C9AC00" points="554.777,319.454 
				548.533,365.927 547.087,365.951 			"/>
			<polygon clip-path="url(#SVGID_2_)" fill-rule="evenodd" clip-rule="evenodd" fill="#C9AC00" points="554.777,319.454 
				547.375,365.946 545.936,365.935 			"/>
			<polygon clip-path="url(#SVGID_2_)" fill-rule="evenodd" clip-rule="evenodd" fill="#C9AC00" points="554.777,319.454 
				546.225,365.939 544.791,365.891 			"/>
			<polygon clip-path="url(#SVGID_2_)" fill-rule="evenodd" clip-rule="evenodd" fill="#C6AA00" points="554.777,319.454 
				545.077,365.901 543.651,365.819 			"/>
			<polygon clip-path="url(#SVGID_2_)" fill-rule="evenodd" clip-rule="evenodd" fill="#C6AA00" points="554.777,319.454 
				543.936,365.835 542.518,365.719 			"/>
			<polygon clip-path="url(#SVGID_2_)" fill-rule="evenodd" clip-rule="evenodd" fill="#C6AA00" points="554.777,319.454 
				542.802,365.743 541.393,365.592 			"/>
			<polygon clip-path="url(#SVGID_2_)" fill-rule="evenodd" clip-rule="evenodd" fill="#C4A800" points="554.777,319.454 
				541.675,365.622 540.275,365.437 			"/>
			<polygon clip-path="url(#SVGID_2_)" fill-rule="evenodd" clip-rule="evenodd" fill="#C4A800" points="554.777,319.454 
				540.555,365.474 539.168,365.253 			"/>
			<polygon clip-path="url(#SVGID_2_)" fill-rule="evenodd" clip-rule="evenodd" fill="#C4A800" points="554.777,319.454 
				539.444,365.297 538.067,365.042 			"/>
			<polygon clip-path="url(#SVGID_2_)" fill-rule="evenodd" clip-rule="evenodd" fill="#C2A600" points="554.777,319.454 
				538.342,365.094 536.979,364.804 			"/>
			<polygon clip-path="url(#SVGID_2_)" fill-rule="evenodd" clip-rule="evenodd" fill="#C2A700" points="554.777,319.454 
				537.251,364.862 535.899,364.538 			"/>
			<polygon clip-path="url(#SVGID_2_)" fill-rule="evenodd" clip-rule="evenodd" fill="#C0A500" points="554.777,319.454 
				536.169,364.604 534.832,364.246 			"/>
			<polygon clip-path="url(#SVGID_2_)" fill-rule="evenodd" clip-rule="evenodd" fill="#C0A600" points="554.777,319.454 
				535.099,364.317 533.778,363.925 			"/>
			<polygon clip-path="url(#SVGID_2_)" fill-rule="evenodd" clip-rule="evenodd" fill="#C0A600" points="554.777,319.454 
				534.042,364.004 532.735,363.579 			"/>
			<polygon clip-path="url(#SVGID_2_)" fill-rule="evenodd" clip-rule="evenodd" fill="#BEA400" points="554.777,319.454 
				532.996,363.664 531.705,363.207 			"/>
			<polygon clip-path="url(#SVGID_2_)" fill-rule="evenodd" clip-rule="evenodd" fill="#BEA400" points="554.777,319.454 
				531.963,363.298 530.69,362.807 			"/>
			<polygon clip-path="url(#SVGID_2_)" fill-rule="evenodd" clip-rule="evenodd" fill="#BBA200" points="554.777,319.454 
				530.944,362.905 529.689,362.382 			"/>
			<polygon clip-path="url(#SVGID_2_)" fill-rule="evenodd" clip-rule="evenodd" fill="#BBA200" points="554.777,319.454 
				529.94,362.486 528.704,361.93 			"/>
			<polygon clip-path="url(#SVGID_2_)" fill-rule="evenodd" clip-rule="evenodd" fill="#BBA200" points="554.777,319.454 
				528.951,362.041 527.734,361.453 			"/>
			<polygon clip-path="url(#SVGID_2_)" fill-rule="evenodd" clip-rule="evenodd" fill="#B9A000" points="554.777,319.454 
				527.977,361.571 526.779,360.95 			"/>
			<polygon clip-path="url(#SVGID_2_)" fill-rule="evenodd" clip-rule="evenodd" fill="#B9A005" points="554.777,319.454 
				527.02,361.074 525.844,360.423 			"/>
			<polygon clip-path="url(#SVGID_2_)" fill-rule="evenodd" clip-rule="evenodd" fill="#B9A005" points="554.777,319.454 
				526.078,360.554 524.925,359.87 			"/>
			<polygon clip-path="url(#SVGID_2_)" fill-rule="evenodd" clip-rule="evenodd" fill="#B79F0C" points="554.777,319.454 
				525.155,360.007 524.022,359.295 			"/>
			<polygon clip-path="url(#SVGID_2_)" fill-rule="evenodd" clip-rule="evenodd" fill="#B79F13" points="554.777,319.454 
				524.249,359.437 523.139,358.694 			"/>
			<polygon clip-path="url(#SVGID_2_)" fill-rule="evenodd" clip-rule="evenodd" fill="#B59D12" points="554.777,319.454 
				523.361,358.842 522.275,358.07 			"/>
			<polygon clip-path="url(#SVGID_2_)" fill-rule="evenodd" clip-rule="evenodd" fill="#B59D17" points="554.777,319.454 
				522.492,358.225 521.432,357.422 			"/>
			<polygon clip-path="url(#SVGID_2_)" fill-rule="evenodd" clip-rule="evenodd" fill="#B59D17" points="554.777,319.454 
				521.643,357.583 520.607,356.753 			"/>
			<polygon clip-path="url(#SVGID_2_)" fill-rule="evenodd" clip-rule="evenodd" fill="#B39C1A" points="554.777,319.454 
				520.815,356.919 519.804,356.06 			"/>
			<polygon clip-path="url(#SVGID_2_)" fill-rule="evenodd" clip-rule="evenodd" fill="#B39C1E" points="554.777,319.454 
				520.005,356.232 519.021,355.346 			"/>
			<polygon clip-path="url(#SVGID_2_)" fill-rule="evenodd" clip-rule="evenodd" fill="#B09A1E" points="554.777,319.454 
				519.217,355.523 518.261,354.61 			"/>
			<polygon clip-path="url(#SVGID_2_)" fill-rule="evenodd" clip-rule="evenodd" fill="#B09A21" points="554.777,319.454 
				518.452,354.792 517.522,353.852 			"/>
			<polygon clip-path="url(#SVGID_2_)" fill-rule="evenodd" clip-rule="evenodd" fill="#B09A21" points="554.777,319.454 
				517.707,354.039 516.805,353.073 			"/>
			<polygon clip-path="url(#SVGID_2_)" fill-rule="evenodd" clip-rule="evenodd" fill="#AE9823" points="554.777,319.454 
				516.985,353.267 516.112,352.276 			"/>
			<polygon clip-path="url(#SVGID_2_)" fill-rule="evenodd" clip-rule="evenodd" fill="#AE9826" points="554.777,319.454 
				516.286,352.474 515.442,351.457 			"/>
			<polygon clip-path="url(#SVGID_2_)" fill-rule="evenodd" clip-rule="evenodd" fill="#AC9625" points="554.777,319.454 
				515.609,351.66 514.793,350.619 			"/>
			<polygon clip-path="url(#SVGID_2_)" fill-rule="evenodd" clip-rule="evenodd" fill="#AC9628" points="554.777,319.454 
				514.958,350.827 514.171,349.763 			"/>
			<polygon clip-path="url(#SVGID_2_)" fill-rule="evenodd" clip-rule="evenodd" fill="#AC962A" points="554.777,319.454 
				514.329,349.976 513.573,348.888 			"/>
			<polygon clip-path="url(#SVGID_2_)" fill-rule="evenodd" clip-rule="evenodd" fill="#AA952A" points="554.777,319.454 
				513.725,349.106 513,347.997 			"/>
			<polygon clip-path="url(#SVGID_2_)" fill-rule="evenodd" clip-rule="evenodd" fill="#AA952C" points="554.777,319.454 
				513.145,348.22 512.451,347.088 			"/>
			<polygon clip-path="url(#SVGID_2_)" fill-rule="evenodd" clip-rule="evenodd" fill="#A7942D" points="554.777,319.454 
				512.59,347.313 511.93,346.161 			"/>
			<polygon clip-path="url(#SVGID_2_)" fill-rule="evenodd" clip-rule="evenodd" fill="#A7942D" points="554.777,319.454 
				512.061,346.392 511.433,345.218 			"/>
			<polygon clip-path="url(#SVGID_2_)" fill-rule="evenodd" clip-rule="evenodd" fill="#A79430" points="554.777,319.454 
				511.559,345.453 510.961,344.261 			"/>
			<polygon clip-path="url(#SVGID_2_)" fill-rule="evenodd" clip-rule="evenodd" fill="#A59231" points="554.777,319.454 
				511.08,344.499 510.518,343.289 			"/>
			<polygon clip-path="url(#SVGID_2_)" fill-rule="evenodd" clip-rule="evenodd" fill="#A59231" points="554.777,319.454 
				510.63,343.531 510.1,342.301 			"/>
			<polygon clip-path="url(#SVGID_2_)" fill-rule="evenodd" clip-rule="evenodd" fill="#A59233" points="554.777,319.454 
				510.205,342.547 509.709,341.3 			"/>
			<polygon clip-path="url(#SVGID_2_)" fill-rule="evenodd" clip-rule="evenodd" fill="#A39032" points="554.777,319.454 
				509.809,341.55 509.346,340.286 			"/>
			<polygon clip-path="url(#SVGID_2_)" fill-rule="evenodd" clip-rule="evenodd" fill="#A39034" points="554.777,319.454 
				509.438,340.539 509.009,339.26 			"/>
			<polygon clip-path="url(#SVGID_2_)" fill-rule="evenodd" clip-rule="evenodd" fill="#A08E35" points="554.777,319.454 
				509.095,339.516 508.699,338.222 			"/>
			<polygon clip-path="url(#SVGID_2_)" fill-rule="evenodd" clip-rule="evenodd" fill="#A08E35" points="554.777,319.454 
				508.778,338.482 508.419,337.173 			"/>
			<polygon clip-path="url(#SVGID_2_)" fill-rule="evenodd" clip-rule="evenodd" fill="#A08E37" points="554.777,319.454 
				508.492,337.434 508.166,336.112 			"/>
			<polygon clip-path="url(#SVGID_2_)" fill-rule="evenodd" clip-rule="evenodd" fill="#9E8C37" points="554.777,319.454 
				508.231,336.377 507.94,335.042 			"/>
			<polygon clip-path="url(#SVGID_2_)" fill-rule="evenodd" clip-rule="evenodd" fill="#9E8C37" points="554.777,319.454 
				507.998,335.308 507.744,333.962 			"/>
			<polygon clip-path="url(#SVGID_2_)" fill-rule="evenodd" clip-rule="evenodd" fill="#9C8B38" points="554.777,319.454 
				507.795,334.232 507.577,332.873 			"/>
			<polygon clip-path="url(#SVGID_2_)" fill-rule="evenodd" clip-rule="evenodd" fill="#9C8B3A" points="554.777,319.454 
				507.62,333.145 507.436,331.776 			"/>
			<polygon clip-path="url(#SVGID_2_)" fill-rule="evenodd" clip-rule="evenodd" fill="#9C8B3A" points="554.777,319.454 
				507.473,332.05 507.325,330.673 			"/>
			<polygon clip-path="url(#SVGID_2_)" fill-rule="evenodd" clip-rule="evenodd" fill="#99893B" points="554.777,319.454 
				507.354,330.948 507.243,329.562 			"/>
			<polygon clip-path="url(#SVGID_2_)" fill-rule="evenodd" clip-rule="evenodd" fill="#99893B" points="554.777,319.454 
				507.264,329.839 507.188,328.445 			"/>
			<polygon clip-path="url(#SVGID_2_)" fill-rule="evenodd" clip-rule="evenodd" fill="#97873B" points="554.777,319.454 
				507.202,328.724 507.162,327.322 			"/>
			<polygon clip-path="url(#SVGID_2_)" fill-rule="evenodd" clip-rule="evenodd" fill="#97873D" points="554.777,319.454 
				507.17,327.603 507.165,326.195 			"/>
			<polygon clip-path="url(#SVGID_2_)" fill-rule="evenodd" clip-rule="evenodd" fill="#97873D" points="554.777,319.454 
				507.167,326.477 507.198,325.064 			"/>
			<polygon clip-path="url(#SVGID_2_)" fill-rule="evenodd" clip-rule="evenodd" fill="#94853D" points="554.777,319.454 
				507.191,325.348 507.257,323.93 			"/>
			<polygon clip-path="url(#SVGID_2_)" fill-rule="evenodd" clip-rule="evenodd" fill="#95863E" points="554.777,319.454 
				507.244,324.213 507.346,322.793 			"/>
			<polygon clip-path="url(#SVGID_2_)" fill-rule="evenodd" clip-rule="evenodd" fill="#92843E" points="554.777,319.454 
				507.326,323.077 507.463,321.654 			"/>
			<polygon clip-path="url(#SVGID_2_)" fill-rule="evenodd" clip-rule="evenodd" fill="#928440" points="554.777,319.454 
				507.436,321.939 507.61,320.512 			"/>
			<polygon clip-path="url(#SVGID_2_)" fill-rule="evenodd" clip-rule="evenodd" fill="#928440" points="554.777,319.454 
				507.577,320.798 507.784,319.371 			"/>
			<polygon clip-path="url(#SVGID_2_)" fill-rule="evenodd" clip-rule="evenodd" fill="#908140" points="554.777,319.454 
				507.743,319.657 507.988,318.23 			"/>
			<polygon clip-path="url(#SVGID_2_)" fill-rule="evenodd" clip-rule="evenodd" fill="#908140" points="554.777,319.454 
				507.939,318.516 508.22,317.091 			"/>
			<polygon clip-path="url(#SVGID_2_)" fill-rule="evenodd" clip-rule="evenodd" fill="#8D7F41" points="554.777,319.454 
				508.163,317.376 508.477,315.951 			"/>
			<polygon clip-path="url(#SVGID_2_)" fill-rule="evenodd" clip-rule="evenodd" fill="#8D8042" points="554.777,319.454 
				508.415,316.237 508.764,314.815 			"/>
			<polygon clip-path="url(#SVGID_2_)" fill-rule="evenodd" clip-rule="evenodd" fill="#8D8042" points="554.777,319.454 
				508.695,315.099 509.08,313.68 			"/>
			<polygon clip-path="url(#SVGID_2_)" fill-rule="evenodd" clip-rule="evenodd" fill="#8B7D42" points="554.777,319.454 
				509.003,313.964 509.422,312.551 			"/>
			<polygon clip-path="url(#SVGID_2_)" fill-rule="evenodd" clip-rule="evenodd" fill="#8B7E44" points="554.777,319.454 
				509.338,312.833 509.791,311.424 			"/>
			<polygon clip-path="url(#SVGID_2_)" fill-rule="evenodd" clip-rule="evenodd" fill="#8B7E44" points="554.777,319.454 
				509.701,311.706 510.187,310.303 			"/>
			<polygon clip-path="url(#SVGID_2_)" fill-rule="evenodd" clip-rule="evenodd" fill="#887B44" points="554.777,319.454 
				510.091,310.583 510.611,309.185 			"/>
			<polygon clip-path="url(#SVGID_2_)" fill-rule="evenodd" clip-rule="evenodd" fill="#887C46" points="554.777,319.454 
				510.508,309.466 511.062,308.077 			"/>
			<polygon clip-path="url(#SVGID_2_)" fill-rule="evenodd" clip-rule="evenodd" fill="#867944" points="554.777,319.454 
				510.951,308.354 511.538,306.972 			"/>
			<polygon clip-path="url(#SVGID_2_)" fill-rule="evenodd" clip-rule="evenodd" fill="#867A46" points="554.777,319.454 
				511.42,307.25 512.041,305.879 			"/>
			<polygon clip-path="url(#SVGID_2_)" fill-rule="evenodd" clip-rule="evenodd" fill="#867A46" points="554.777,319.454 
				511.916,306.152 512.569,304.79 			"/>
			<polygon clip-path="url(#SVGID_2_)" fill-rule="evenodd" clip-rule="evenodd" fill="#837846" points="554.777,319.454 
				512.439,305.063 513.122,303.712 			"/>
			<polygon clip-path="url(#SVGID_2_)" fill-rule="evenodd" clip-rule="evenodd" fill="#837847" points="554.777,319.454 
				512.985,303.983 513.701,302.643 			"/>
			<polygon clip-path="url(#SVGID_2_)" fill-rule="evenodd" clip-rule="evenodd" fill="#817646" points="554.777,319.454 
				513.557,302.911 514.305,301.585 			"/>
			<polygon clip-path="url(#SVGID_2_)" fill-rule="evenodd" clip-rule="evenodd" fill="#817647" points="554.777,319.454 
				514.155,301.849 514.932,300.536 			"/>
			<polygon clip-path="url(#SVGID_2_)" fill-rule="evenodd" clip-rule="evenodd" fill="#817649" points="554.777,319.454 
				514.777,300.798 515.585,299.499 			"/>
			<polygon clip-path="url(#SVGID_2_)" fill-rule="evenodd" clip-rule="evenodd" fill="#7E7447" points="554.777,319.454 
				515.424,299.758 516.26,298.474 			"/>
			<polygon clip-path="url(#SVGID_2_)" fill-rule="evenodd" clip-rule="evenodd" fill="#7E7449" points="554.777,319.454 
				516.093,298.732 516.958,297.462 			"/>
			<polygon clip-path="url(#SVGID_2_)" fill-rule="evenodd" clip-rule="evenodd" fill="#7C7248" points="554.777,319.454 
				516.786,297.717 517.68,296.464 			"/>
			<polygon clip-path="url(#SVGID_2_)" fill-rule="evenodd" clip-rule="evenodd" fill="#7C7248" points="554.777,319.454 
				517.501,296.714 518.423,295.478 			"/>
			<polygon clip-path="url(#SVGID_2_)" fill-rule="evenodd" clip-rule="evenodd" fill="#7C724A" points="554.777,319.454 
				518.24,295.726 519.19,294.508 			"/>
			<polygon clip-path="url(#SVGID_2_)" fill-rule="evenodd" clip-rule="evenodd" fill="#7A7049" points="554.777,319.454 
				519,294.751 519.977,293.552 			"/>
			<polygon clip-path="url(#SVGID_2_)" fill-rule="evenodd" clip-rule="evenodd" fill="#7A7049" points="554.777,319.454 
				519.781,293.792 520.784,292.613 			"/>
			<polygon clip-path="url(#SVGID_2_)" fill-rule="evenodd" clip-rule="evenodd" fill="#776E49" points="554.777,319.454 
				520.584,292.849 521.613,291.689 			"/>
			<polygon clip-path="url(#SVGID_2_)" fill-rule="evenodd" clip-rule="evenodd" fill="#776E49" points="554.777,319.454 
				521.408,291.921 522.462,290.781 			"/>
			<polygon clip-path="url(#SVGID_2_)" fill-rule="evenodd" clip-rule="evenodd" fill="#776F4B" points="554.777,319.454 
				522.251,291.01 523.329,289.892 			"/>
			<polygon clip-path="url(#SVGID_2_)" fill-rule="evenodd" clip-rule="evenodd" fill="#756C4A" points="554.777,319.454 
				523.114,290.116 524.217,289.02 			"/>
			<polygon clip-path="url(#SVGID_2_)" fill-rule="evenodd" clip-rule="evenodd" fill="#756C4A" points="554.777,319.454 
				523.996,289.239 525.123,288.167 			"/>
			<polygon clip-path="url(#SVGID_2_)" fill-rule="evenodd" clip-rule="evenodd" fill="#756C4C" points="554.777,319.454 
				524.898,288.382 526.045,287.332 			"/>
			<polygon clip-path="url(#SVGID_2_)" fill-rule="evenodd" clip-rule="evenodd" fill="#726A4A" points="554.777,319.454 
				525.816,287.542 526.986,286.517 			"/>
			<polygon clip-path="url(#SVGID_2_)" fill-rule="evenodd" clip-rule="evenodd" fill="#726A4B" points="554.777,319.454 
				526.752,286.722 527.943,285.721 			"/>
			<polygon clip-path="url(#SVGID_2_)" fill-rule="evenodd" clip-rule="evenodd" fill="#70684A" points="554.777,319.454 
				527.705,285.921 528.917,284.945 			"/>
			<polygon clip-path="url(#SVGID_2_)" fill-rule="evenodd" clip-rule="evenodd" fill="#70684A" points="554.777,319.454 
				528.673,285.14 529.907,284.191 			"/>
			<polygon clip-path="url(#SVGID_2_)" fill-rule="evenodd" clip-rule="evenodd" fill="#70684C" points="554.777,319.454 
				529.66,284.381 530.909,283.458 			"/>
			<polygon clip-path="url(#SVGID_2_)" fill-rule="evenodd" clip-rule="evenodd" fill="#6D674A" points="554.777,319.454 
				530.659,283.643 531.927,282.746 			"/>
			<polygon clip-path="url(#SVGID_2_)" fill-rule="evenodd" clip-rule="evenodd" fill="#6D674B" points="554.777,319.454 
				531.674,282.926 532.96,282.057 			"/>
			<polygon clip-path="url(#SVGID_2_)" fill-rule="evenodd" clip-rule="evenodd" fill="#6B644A" points="554.777,319.454 
				532.703,282.232 534.005,281.39 			"/>
			<polygon clip-path="url(#SVGID_2_)" fill-rule="evenodd" clip-rule="evenodd" fill="#6B644A" points="554.777,319.454 
				533.746,281.558 535.064,280.745 			"/>
			<polygon clip-path="url(#SVGID_2_)" fill-rule="evenodd" clip-rule="evenodd" fill="#6B654C" points="554.777,319.454 
				534.8,280.908 536.133,280.125 			"/>
			<polygon clip-path="url(#SVGID_2_)" fill-rule="evenodd" clip-rule="evenodd" fill="#68624B" points="554.777,319.454 
				535.866,280.281 537.214,279.529 			"/>
			<polygon clip-path="url(#SVGID_2_)" fill-rule="evenodd" clip-rule="evenodd" fill="#68624B" points="554.777,319.454 
				536.945,279.679 538.305,278.955 			"/>
			<polygon clip-path="url(#SVGID_2_)" fill-rule="evenodd" clip-rule="evenodd" fill="#66604A" points="554.777,319.454 
				538.033,279.1 539.407,278.407 			"/>
			<polygon clip-path="url(#SVGID_2_)" fill-rule="evenodd" clip-rule="evenodd" fill="#66604A" points="554.777,319.454 
				539.132,278.546 540.518,277.883 			"/>
			<polygon clip-path="url(#SVGID_2_)" fill-rule="evenodd" clip-rule="evenodd" fill="#66604B" points="554.777,319.454 
				540.24,278.015 541.636,277.385 			"/>
			<polygon clip-path="url(#SVGID_2_)" fill-rule="evenodd" clip-rule="evenodd" fill="#635E4A" points="554.777,319.454 
				541.358,277.511 542.763,276.911 			"/>
			<polygon clip-path="url(#SVGID_2_)" fill-rule="evenodd" clip-rule="evenodd" fill="#635E4A" points="554.777,319.454 
				542.482,277.03 543.897,276.463 			"/>
			<polygon clip-path="url(#SVGID_2_)" fill-rule="evenodd" clip-rule="evenodd" fill="#615C49" points="554.777,319.454 
				543.615,276.576 545.039,276.041 			"/>
			<polygon clip-path="url(#SVGID_2_)" fill-rule="evenodd" clip-rule="evenodd" fill="#615C4A" points="554.777,319.454 
				544.753,276.149 546.186,275.646 			"/>
			<polygon clip-path="url(#SVGID_2_)" fill-rule="evenodd" clip-rule="evenodd" fill="#615C4A" points="554.777,319.454 
				545.899,275.746 547.339,275.275 			"/>
			<polygon clip-path="url(#SVGID_2_)" fill-rule="evenodd" clip-rule="evenodd" fill="#5F5A49" points="554.777,319.454 
				547.05,275.371 548.494,274.933 			"/>
			<polygon clip-path="url(#SVGID_2_)" fill-rule="evenodd" clip-rule="evenodd" fill="#5F5A4A" points="554.777,319.454 
				548.206,275.02 549.655,274.618 			"/>
			<polygon clip-path="url(#SVGID_2_)" fill-rule="evenodd" clip-rule="evenodd" fill="#5C5848" points="554.777,319.454 
				549.364,274.698 550.818,274.328 			"/>
			<polygon clip-path="url(#SVGID_2_)" fill-rule="evenodd" clip-rule="evenodd" fill="#5C5849" points="554.777,319.454 
				550.526,274.402 551.984,274.066 			"/>
			<polygon clip-path="url(#SVGID_2_)" fill-rule="evenodd" clip-rule="evenodd" fill="#5C584A" points="554.777,319.454 
				551.692,274.134 553.15,273.833 			"/>
			<polygon clip-path="url(#SVGID_2_)" fill-rule="evenodd" clip-rule="evenodd" fill="#5A5648" points="554.777,319.454 
				552.859,273.892 554.319,273.625 			"/>
			<polygon clip-path="url(#SVGID_2_)" fill-rule="evenodd" clip-rule="evenodd" fill="#5A5649" points="554.777,319.454 
				554.027,273.678 555.487,273.446 			"/>
			<polygon clip-path="url(#SVGID_2_)" fill-rule="evenodd" clip-rule="evenodd" fill="#5A564A" points="554.777,319.454 
				555.196,273.493 556.656,273.295 			"/>
			<polygon clip-path="url(#SVGID_2_)" fill-rule="evenodd" clip-rule="evenodd" fill="#575448" points="554.777,319.454 
				556.364,273.333 557.823,273.17 			"/>
			<polygon clip-path="url(#SVGID_2_)" fill-rule="evenodd" clip-rule="evenodd" fill="#575449" points="554.777,319.454 
				557.531,273.203 558.988,273.074 			"/>
			<polygon clip-path="url(#SVGID_2_)" fill-rule="evenodd" clip-rule="evenodd" fill="#555247" points="554.777,319.454 
				558.698,273.1 560.152,273.006 			"/>
			<polygon clip-path="url(#SVGID_2_)" fill-rule="evenodd" clip-rule="evenodd" fill="#555248" points="554.777,319.454 
				559.86,273.025 561.311,272.966 			"/>
			<polygon clip-path="url(#SVGID_2_)" fill-rule="evenodd" clip-rule="evenodd" fill="#555248" points="554.777,319.454 
				561.021,272.979 562.466,272.954 			"/>
			<polygon clip-path="url(#SVGID_2_)" fill-rule="evenodd" clip-rule="evenodd" fill="#535046" points="554.777,319.454 
				562.178,272.959 563.617,272.971 			"/>
			<polygon clip-path="url(#SVGID_2_)" fill-rule="evenodd" clip-rule="evenodd" fill="#535047" points="554.777,319.454 
				563.33,272.969 564.763,273.014 			"/>
			<polygon clip-path="url(#SVGID_2_)" fill-rule="evenodd" clip-rule="evenodd" fill="#514D45" points="554.777,319.454 
				564.476,273.004 565.902,273.087 			"/>
			<polygon clip-path="url(#SVGID_2_)" fill-rule="evenodd" clip-rule="evenodd" fill="#514D46" points="554.777,319.454 
				565.617,273.071 567.035,273.187 			"/>
			<polygon clip-path="url(#SVGID_2_)" fill-rule="evenodd" clip-rule="evenodd" fill="#FFED00" points="554.777,319.454 
				566.752,273.162 567.88,273.283 			"/>
		</g>
	</g>
	<path fill-rule="evenodd" clip-rule="evenodd" d="M87.865,352.134l22.893-85.423h18.968l-8.397,31.333
		c13.134-7.452,26.043-18.381,34.188-31.333h19.921c-6.967,14.033-20.509,27.565-40.665,40.574
		c6.237,6.505,11.915,14.541,15.257,22.925c2.673,6.827,4.05,14.598,3.723,21.924h-18.968c-0.718-12.53-8.137-28.903-18.004-37.116
		l-9.946,37.116H87.865L87.865,352.134z M271.9,287.917h17.875l-10.835,40.439l-6.371,23.778h-17.875l4.777-17.825
		c-4.777,0.888-9.308,1.325-13.57,1.325c-9.074,0-15.212-2.137-18.45-6.436c-3.243-4.276-3.836-10.302-1.763-18.035l6.229-23.246
		h17.877l-5.71,21.312c-0.986,3.683-0.869,6.55,0.358,8.597c1.246,2.047,3.633,3.07,7.204,3.07c1.728,0,3.813-0.227,6.226-0.66
		c2.395-0.454,4.333-0.978,5.801-1.615L271.9,287.917L271.9,287.917z M283.748,329.891c-4.442,16.591,10.42,22.243,23.174,22.243
		c9.135,0,20.061-1.409,28.761-4.208l10.402-38.821c2.049-7.643,1.284-13.282-2.296-16.899c-3.578-3.617-9.869-5.434-18.898-5.434
		c-4.253,0-9.228,0.317-14.919,0.931c-3.936,0.427-7.122,0.875-9.545,1.33l-3.702,13.817c7.844-1.433,14.726-2.159,20.638-2.159
		c4.845,0,8.086,0.638,9.677,1.91c1.593,1.273,2.01,3.365,1.236,6.253l-1.428,5.329c-5.055-2.434-10.184-2.985-15.052-2.985
		C298.887,311.197,287.296,316.651,283.748,329.891L283.748,329.891L283.748,329.891z M302.423,331.245
		c1.3-8.405,16.275-9.511,21.324-5.488l-3.29,12.275C314.127,339.801,300.955,340.725,302.423,331.245L302.423,331.245z
		 M158.46,329.891c-4.442,16.591,10.42,22.243,23.174,22.243c9.135,0,20.061-1.409,28.761-4.208l10.402-38.821
		c2.049-7.643,1.284-13.282-2.296-16.899c-3.578-3.617-9.869-5.434-18.897-5.434c-4.253,0-9.229,0.317-14.92,0.931
		c-3.936,0.427-7.122,0.875-9.545,1.33l-3.702,13.817c7.845-1.433,14.726-2.159,20.638-2.159c4.845,0,8.086,0.638,9.677,1.91
		c1.593,1.273,2.01,3.365,1.236,6.253l-1.428,5.329c-5.055-2.434-10.184-2.985-15.052-2.985
		C173.598,311.197,162.007,316.651,158.46,329.891L158.46,329.891L158.46,329.891z M177.134,331.245
		c1.3-8.405,16.275-9.511,21.324-5.488l-3.29,12.275C188.838,339.801,175.666,340.725,177.134,331.245L177.134,331.245z
		 M714.643,266.711c15.343,0,9.495,17.661-4.738,17.661C694.622,284.372,700.468,266.711,714.643,266.711L714.643,266.711z
		 M713.261,352.134l3.73-13.919h17.875l-3.73,13.919H713.261L713.261,352.134z M718.398,332.965h17.875l17.751-66.254h-17.875
		L718.398,332.965L718.398,332.965z M687.903,333.143c-1.11,4.147-2.853,11.197,0.081,14.907c2.485,3.143,6.423,4.084,10.181,4.084
		c3.447,0,6.821-0.495,10.112-1.494l3.33-12.424h-3.981c-1.25,0-1.997-0.385-2.24-1.138c-0.24-0.747-0.093-2.116,0.442-4.116
		l12.07-45.044h-17.875L687.903,333.143L687.903,333.143z M694.563,287.917l-15.258,56.94c-4.634,2.184-9.856,3.935-15.651,5.277
		c-5.816,1.341-11.18,2-16.116,2c-7.004,0-12.36-1.319-16.047-3.934c-7.934,2.615-15.292,3.934-22.115,3.934
		c-8.848,0-14.836-2.182-17.957-6.573c-3.128-4.366-3.655-10.461-1.558-18.285l10.547-39.359h17.875l-10.078,37.608
		c-1.011,3.773-0.958,6.71,0.148,8.779c1.13,2.07,3.38,3.093,6.768,3.093c3.283,0,8-1.47,10.903-3.001l12.456-46.478h17.875
		l-10.742,40.088c-1.673,6.25,0.849,9.392,7.604,9.392c3.196,0,7.904-0.969,10.82-2.274l12.651-47.205H694.563L694.563,287.917z
		 M445.639,361.295l18.848-70.339c8.074-2.738,18.591-4.184,27.117-4.184c8.87,0,19.533,3.098,24.942,11.051
		c3.862,5.756,2.996,14.062,1.351,20.424l-0.071,0.274c-2.777,10.734-7.457,18.99-13.774,24.835
		c-6.319,5.844-13.975,8.779-22.981,8.779c-4.843,0-9.736-0.5-14.694-1.523l-2.863,10.684H445.639L445.639,361.295z
		 M470.003,337.078c2.485,0.751,5.496,1.138,9.02,1.138c4.598,0,8.505-1.486,11.715-4.45c3.57-3.294,6.284-8.426,8.154-15.382l0,0
		c1.455-5.437,1.516-11.008-0.652-13.692c-2.175-2.661-5.637-4.002-10.368-4.002c-2.866,0-5.668,0.363-8.406,1.068L470.003,337.078
		L470.003,337.078z M418.559,295.299l-15.231,56.835h18.968l14.078-52.582c1.755-6.555,4.509-11.19,8.216-13.966
		c3.702-2.751,8.969-4.139,15.814-4.139h16.743l3.966-14.737h-25.109c-10.049,0-18.166,2.321-24.28,6.937
		C425.61,278.264,421.191,285.474,418.559,295.299L418.559,295.299z M415.076,287.917l-15.258,56.94
		c-4.769,2.184-10.15,3.935-16.173,5.277c-6.001,1.341-11.635,2-16.867,2c-9.074,0-15.211-2.137-18.449-6.436
		c-3.243-4.276-3.836-10.302-1.763-18.035l10.652-39.746h17.877l-10.133,37.812c-0.986,3.683-0.868,6.55,0.358,8.597
		c1.246,2.047,3.633,3.07,7.204,3.07c1.727,0,3.813-0.227,6.226-0.659c2.395-0.455,4.332-0.979,5.801-1.615l12.65-47.205H384.92
		l10.35-21.207h17.875l-15.944,21.207H415.076z"/>
</g>
</svg>
